<?xml version="1.0" encoding="utf-8"?>
<!-- Generator: Adobe Illustrator 27.5.0, SVG Export Plug-In . SVG Version: 6.00 Build 0)  -->
<svg version="1.1" xmlns="http://www.w3.org/2000/svg" xmlns:xlink="http://www.w3.org/1999/xlink" x="0px" y="0px"
	 viewBox="0 0 3710 3710" style="enable-background:new 0 0 3710 3710;" xml:space="preserve">
<g id="Background">
	<g>
		<g>
			<rect style="fill:#FFFFFF;" width="3710" height="3710"/>
		</g>
	</g>
</g>
<g id="Illustration">
	<g>
		<path style="fill:#F4F7FA;" d="M3122.23,1231.075c72.678-661.96-569.086-891.936-1024.049-722.447
			c-458.654,170.864-564.985-112.374-1209.922-31.448c-653.033,81.942-321.478,1107.04-321.478,1107.04
			s103.907,891.387,227.011,1302.266c122.437,408.656,1294.419,260.807,1579.522,248.612
			c283.462-12.125,529.775,11.278,776.399-437.423C3395.885,2249.789,3049.792,1890.841,3122.23,1231.075z"/>
		<path style="opacity:0.3;fill:#BFC8D6;" d="M2901.186,1069.87l-52.951,3.572c-6.078-23.627-14.061-46.452-23.967-68.211
			l43.929-29.481c11.986-8.044,15.065-24.321,6.881-36.362l-51.236-75.384c-8.203-12.068-24.597-15.351-36.621-7.325l-44.518,29.711
			c-16.906-17.323-35.271-33.21-54.917-47.44l23.474-48.2c6.33-12.997,0.79-28.781-12.376-35.26l-82.493-40.592
			c-13.215-6.503-29.093-1.227-35.457,11.795l-23.639,48.354c-23.119-6.727-47.044-11.441-71.525-14.161l-4.115-54.227
			c-1.105-14.558-13.921-25.656-28.634-24.789l-92.205,5.438c-14.775,0.872-25.863,13.415-24.755,28.015l4.127,54.387
			c-24.011,5.676-47.21,13.281-69.34,22.808l-31.098-45.341c-8.385-12.228-25.166-15.586-37.484-7.498l-77.171,50.68
			c-12.364,8.119-15.561,24.636-7.134,36.881l31.203,45.351c-17.723,16.745-33.912,35.012-48.423,54.56l-49.927-24.119
			c-13.519-6.531-29.771-1.128-36.296,12.074l-40.85,82.649c-6.542,13.231-0.849,29.236,12.706,35.742l49.562,23.788
			c-6.763,23.228-11.396,47.282-13.959,71.894l-54.876,3.702c-15.021,1.013-26.302,13.774-25.184,28.502l6.989,92.097
			c1.117,14.726,14.207,25.807,29.225,24.75l54.428-3.831c6.137,24.153,14.297,47.452,24.426,69.653l-44.777,29.885
			c-12.432,8.297-15.649,24.916-7.178,37.112l52.903,76.188c8.45,12.169,25.349,15.287,37.741,6.97l44.426-29.813
			c17.434,17.655,36.417,33.741,56.685,48.112l-23.219,47.496c-6.49,13.274-0.833,29.18,12.628,35.519l84.019,39.57
			c13.412,6.316,29.51,0.689,35.962-12.56l22.915-47.052c23.707,6.565,48.221,10.994,73.257,13.356l3.947,52.011
			c1.108,14.6,13.974,25.494,28.727,24.33l92.067-7.263c14.691-1.159,25.698-13.901,24.593-28.458l-3.935-51.857
			c24.219-6.152,47.568-14.245,69.764-24.299l29.392,42.717c8.264,12.012,24.773,15.059,36.869,6.811l75.506-51.482
			c12.052-8.218,15.15-24.597,6.924-36.59l-29.475-42.975c17.455-17.031,33.39-35.524,47.579-55.297l47.113,22.613
			c13.111,6.292,28.839,0.796,35.134-12.271l39.322-81.626c6.281-13.038,0.776-28.724-12.299-35.04l-47.206-22.805
			c6.429-23.018,10.807-46.818,13.123-71.162l52.518-3.697c14.451-1.018,25.273-13.544,24.178-27.978l-6.85-90.271
			C2928.24,1079.806,2915.64,1068.895,2901.186,1069.87z M2423.889,907.664c148.397-9.425,277.05,101.681,288.162,248.113
			c11.111,146.43-99.428,274.029-247.703,285.058c-149.173,11.096-279.872-99.869-291.106-247.908
			C2162.008,1044.886,2274.594,917.146,2423.889,907.664z"/>
		<g>
			<g>
				<g>
					<defs>
						<path id="SVGID_1_" d="M2059.869,2289.5c-85.988-80.692-199.45-211.743-250.792-397.043
							c-67.334-243.018,31.338-365.825,20.211-777.263c-7.035-260.148-14.566-441.629-145.719-538.699
							c-102.778-76.069-269.168-91.192-370.15-20.684c-83.964,58.626-132.539,183.316-147.361,272.32
							c-12.08,72.538-2.378,125.207-44.192,163.418c-42.733,39.051-88.864,16.943-128.822,45.866
							c-81.033,58.657-34.112,252.954-26.529,284.356c84.356,349.312,406.216,584.9,547.851,685.973
							C1631.473,2091.314,1812.635,2202.676,2059.869,2289.5z"/>
					</defs>
					<use xlink:href="#SVGID_1_"  style="overflow:visible;fill:#D8DEE8;"/>
					<clipPath id="SVGID_00000080921900248857402280000003789226695181550499_">
						<use xlink:href="#SVGID_1_"  style="overflow:visible;"/>
					</clipPath>
					<g style="opacity:0.5;clip-path:url(#SVGID_00000080921900248857402280000003789226695181550499_);">
						<g>
							<path style="fill:#FFFFFF;" d="M2158.208,2353.846c-149.911-56.965-278.941-124.92-383.505-201.979
								c-154.777-114.063-251.179-245.101-286.526-389.469c-27.644-112.906-17.39-235.268-4.408-390.184
								c10.761-128.417,29.954-218.381,46.888-297.756c21.946-102.869,39.28-184.12,27.251-301.601
								c-12.222-119.357-51.597-238.05-117.032-352.784l5.854-3.34c65.904,115.555,105.564,235.141,117.882,355.436
								c12.138,118.538-5.293,200.246-27.363,303.694c-16.893,79.179-36.039,168.923-46.763,296.914
								c-13.436,160.336-23.146,276.18,4.237,388.018c34.963,142.794,130.506,272.546,283.979,385.647
								c104.07,76.695,232.561,144.356,381.902,201.105L2158.208,2353.846z"/>
						</g>
						<g>
							<path style="fill:#FFFFFF;" d="M1495.192,1282.196l-1.088-3.648c-69.215-232.334-193.5-377.694-285.574-458.724
								c-99.677-87.718-183.907-120.917-184.747-121.241l2.435-6.285c0.851,0.331,86.198,33.966,186.764,122.467
								c92.245,81.181,216.576,226.424,286.462,458.125c16.706-7.982,91.172-46.026,165.682-122.775
								c77.603-79.936,171.157-219.462,176.145-430.226l6.736,0.158c-5.042,213.078-99.713,354.147-178.246,434.968
								c-85.089,87.57-170.231,125.289-171.08,125.659L1495.192,1282.196z"/>
						</g>
						<g>
							<path style="fill:#FFFFFF;" d="M1475.742,1628.826l-2.35-0.689c-112.998-33.164-241.257-163.232-381.216-386.587
								c-104.041-166.034-175.932-324.418-176.646-325.999l6.141-2.774c0.712,1.576,72.448,159.605,176.256,325.259
								c95.055,151.686,237.063,340.791,375.038,382.937c11.48-16.49,91.687-129.942,192.99-229.338
								c109.533-107.473,364.489-144.589,367.053-144.951l0.941,6.674c-2.54,0.359-255.325,37.171-363.275,143.089
								c-108.498,106.454-192.712,229.132-193.549,230.358L1475.742,1628.826z"/>
						</g>
						<g>
							<path style="fill:#FFFFFF;" d="M1732.758,2120.333l-6.669-0.793c-1.264-0.151-128.326-15.715-294.291-73.581
								c-153.208-53.419-371.93-154.86-543.872-334.756l-331.955-347.315l4.874-4.656L892.8,1706.546
								c171.014,178.927,388.708,279.872,541.218,333.05c143.762,50.125,258.058,68.359,286.209,72.354
								c-35.56-64.372-48.407-131.56-38.194-199.81c8.406-56.175,32.374-113.131,71.237-169.286
								c66.011-95.386,153.488-156.326,154.363-156.931l3.83,5.548c-0.869,0.597-87.457,60.945-152.754,155.367
								c-38.234,55.285-61.792,111.269-70.026,166.397c-10.269,68.77,3.432,136.491,40.725,201.278L1732.758,2120.333z"/>
						</g>
					</g>
				</g>
			</g>
			<g>
				<g>
					<defs>
						<path id="SVGID_00000148639305781658919530000003846127358627778744_" d="M1598.019,2283.806
							c-186.175,1.592-423.571-22.943-651.078-125.359c-58.06-26.137-416.73-187.598-374.695-350.899
							c14.807-57.523,66.829-66.695,87.97-143.258c25.05-90.721-31.955-135.912-71.615-248.85
							c-23.665-67.39-92.922-264.606,25.11-374.08c70.533-65.418,204.754-96.545,307.003-72.867
							c149.977,34.73,201.778,180.563,285.159,428.83c73.913,220.08,55.12,274.169,111.11,431.717
							C1358.538,1945.968,1436.677,2106.917,1598.019,2283.806z"/>
					</defs>
					
						<linearGradient id="SVGID_00000056428909456879629500000007183702171635832721_" gradientUnits="userSpaceOnUse" x1="1307.2368" y1="1091.8901" x2="983.1726" y2="1961.7479">
						<stop  offset="0" style="stop-color:#FFC444"/>
						<stop  offset="0.9964" style="stop-color:#F36F56"/>
					</linearGradient>
					
						<use xlink:href="#SVGID_00000148639305781658919530000003846127358627778744_"  style="overflow:visible;fill:url(#SVGID_00000056428909456879629500000007183702171635832721_);"/>
					<clipPath id="SVGID_00000101074101238515379410000017890199737906816650_">
						<use xlink:href="#SVGID_00000148639305781658919530000003846127358627778744_"  style="overflow:visible;"/>
					</clipPath>
					<g style="opacity:0.5;clip-path:url(#SVGID_00000101074101238515379410000017890199737906816650_);">
						<g>
							<path style="fill:#FFFFFF;" d="M2063.799,2383.587c-88.943,0.001-176.144-10.165-261.156-30.514
								c-251.333-60.163-469.44-210.167-648.26-445.847c-185.892-244.999-282.78-521.284-331.325-709.917
								c-33.822-131.421-27.636-276.889,18.384-432.361l6.463,1.912c-45.669,154.287-51.834,298.546-18.321,428.771
								c48.392,188.032,144.953,463.416,330.168,707.523c177.854,234.404,394.682,383.573,644.461,443.364
								c187.506,44.881,385.909,39.925,589.712-14.726l1.744,6.509C2283.128,2368.48,2172.177,2383.583,2063.799,2383.587z"/>
						</g>
						<g>
							<path style="fill:#FFFFFF;" d="M956.88,1569.484l-2.547-1.641c-401.785-258.84-398.223-557.346-387.563-642.67
								c0.212-1.687,0.36-2.781,0.372-3.25l6.74-0.046c0.007,0.651-0.104,1.57-0.423,4.132
								c-10.516,84.151-13.904,378.187,381.939,634.5c9.635-12.531,54.722-73.405,91.878-161.394
								c38.354-90.823,75.868-229.976,36.784-377.129l6.512-1.731c39.594,149.068,1.642,289.832-37.166,381.669
								c-42.01,99.409-94.104,164.556-94.626,165.203L956.88,1569.484z"/>
						</g>
						<g>
							<path style="fill:#FFFFFF;" d="M1001.662,1916.21c-159.979,0-271.797-41.732-342.468-82.037
								c-51.793-29.539-87.482-61.475-108.301-83.064c-22.637-23.473-32.863-39.752-33.288-40.434l5.721-3.562
								c0.406,0.65,41.719,65.712,139.589,121.422c162.982,92.778,355.396,89.12,488.763,69.498
								c9.436-21.018,104.417-241.361,81.736-536.15l-24.09-313.102l6.72-0.517l24.09,313.103
								c23.883,310.404-82.03,538.9-83.103,541.17l-0.77,1.631l-1.782,0.265C1099.312,1912.643,1048.425,1916.21,1001.662,1916.21z"
								/>
						</g>
					</g>
				</g>
			</g>
		</g>
		<g>
			<g>
				<path style="fill:#97A6B7;" d="M2085.363,2944.083c-33.069-10.969-57.785-39.034-64.755-73.529l-48.131-238.214l-411.724,14.621
					l-50.671,248.165c-7.097,34.755,21.311,69.624,54.028,82.424l172.256,67.398c32.038,12.536,66.477,17.529,100.707,14.6
					l364.04-31.143c10.642-0.91,19.178-9.276,20.417-20.008c1.239-10.732,8.695-22.782-1.453-26.148L2085.363,2944.083z"/>
				
					<linearGradient id="SVGID_00000100346990239290155820000013387095251413053591_" gradientUnits="userSpaceOnUse" x1="1827.8159" y1="3390.6748" x2="1879.1547" y2="2894.3962">
					<stop  offset="0" style="stop-color:#444B8C"/>
					<stop  offset="0.9964" style="stop-color:#26264F"/>
				</linearGradient>
				<path style="fill:url(#SVGID_00000100346990239290155820000013387095251413053591_);" d="M2089.438,2929.596
					c-33.035-10.831-57.727-38.543-64.69-72.605l-48.083-235.219l-401.689,14.452l-50.621,245.046
					c-7.089,34.318,11.668,68.733,44.352,81.373l172.084,66.551c32.006,12.378,66.411,17.308,100.605,14.417l363.673-30.751
					c10.631-0.899,19.159-9.159,20.396-19.756s-5.158-20.6-15.296-23.923L2089.438,2929.596z"/>
			</g>
			<g>
				<g>
					
						<linearGradient id="SVGID_00000022538151049181230970000016781931291440806833_" gradientUnits="userSpaceOnUse" x1="1471.5347" y1="2005.968" x2="929.6214" y2="2068.7156">
						<stop  offset="0" style="stop-color:#444B8C"/>
						<stop  offset="0.3946" style="stop-color:#383C74"/>
						<stop  offset="0.9964" style="stop-color:#26264F"/>
					</linearGradient>
					<path style="fill:url(#SVGID_00000022538151049181230970000016781931291440806833_);" d="M719.452,2790.67
						c-44.649,2.662-81.176-26.303-81.176-64.582V1346.445c0-38.278,36.527-67.838,81.176-65.904l2064.82,89.467
						c32.78,1.42,59.323,29.057,59.323,61.612v1173.376c0,32.556-26.543,60.625-59.323,62.579L719.452,2790.67z"/>
					
						<linearGradient id="SVGID_00000129201219105334979780000013881730858065443496_" gradientUnits="userSpaceOnUse" x1="2393.824" y1="1010.7975" x2="939.2184" y2="3224.0779">
						<stop  offset="0" style="stop-color:#444B8C"/>
						<stop  offset="0.9964" style="stop-color:#26264F"/>
					</linearGradient>
					<path style="fill:url(#SVGID_00000129201219105334979780000013881730858065443496_);" d="M738.008,2790.67
						c-44.649,2.662-81.176-26.303-81.176-64.582V1346.445c0-38.278,36.527-67.838,81.176-65.904l2064.82,89.467
						c32.78,1.42,59.323,29.057,59.323,61.612v1173.376c0,32.556-26.542,60.625-59.323,62.579L738.008,2790.67z"/>
					<path style="opacity:0.3;fill:#D8DEE8;" d="M2802.829,1397.623l-2064.82-84.943c-23.869-0.982-43.276,14.79-43.276,35.23
						v1072.998v303.098c0,20.44,19.407,35.896,43.276,34.525l2064.82-118.571c17.57-1.009,31.777-15.984,31.777-33.451v-268.229
						v-907.722C2834.606,1413.09,2820.399,1398.346,2802.829,1397.623z"/>
					<path style="fill:#D8DEE8;" d="M738.008,2641.327c-9.293,0.459-16.861-5.636-16.861-13.586V1348.929
						c0-7.949,7.568-14.12,16.861-13.751l2064.82,81.776c6.853,0.271,12.423,6.039,12.423,12.855v1096.466
						c0,6.816-5.57,12.639-12.423,12.978L738.008,2641.327z"/>
				</g>
				<path style="opacity:0.6;fill:#FFFFFF;" d="M2587.27,2582.179c-173.712-107.455-52.38-412.976-247.464-566.483
					c-196.68-154.763-473.434,35.053-611.205-125.222c-102.583-119.339,17.449-263.436-80.5-375.668
					c-153.606-176.004-546.825,66.06-727.483-107.333c-25.65-24.619-51.534-61.968-66.265-121.89l-116.345-5.041
					c-44.649-1.935-81.176,27.626-81.176,65.904v1379.643c0,38.279,36.527,67.243,81.176,64.582l2064.82-123.094
					c32.78-1.954,59.323-30.023,59.323-62.579v-20.861C2725.047,2630.659,2641.231,2615.558,2587.27,2582.179z"/>
			</g>
		</g>
		<g>
			<g>
				
					<linearGradient id="SVGID_00000043447327020502985940000001372037823135817875_" gradientUnits="userSpaceOnUse" x1="2274.8311" y1="809.449" x2="890.471" y2="3578.1631">
					<stop  offset="0" style="stop-color:#AA80F9"/>
					<stop  offset="0.9964" style="stop-color:#6165D7"/>
				</linearGradient>
				<path style="fill:url(#SVGID_00000043447327020502985940000001372037823135817875_);" d="M2550.195,1188.931l-1493.739-51.744
					c-50.2-1.739-91.072,38.509-91.072,89.904v1114.385c0,51.395,40.871,91.953,91.072,90.596l1493.739-40.399
					c43.111-1.166,77.919-40.485,77.919-87.827V1277.35C2628.114,1230.008,2593.306,1190.424,2550.195,1188.931z"/>
				<path style="opacity:0.74;fill:#FFFFFF;" d="M994.55,2317.958V1250.83c0-47.559,37.775-84.859,84.186-83.316l1452.198,48.258
					c40.035,1.33,72.369,38.014,72.369,81.94v985.585c0,43.926-32.334,80.364-72.369,81.39l-1452.197,37.229
					C1032.325,2403.104,994.55,2365.518,994.55,2317.958z"/>
				
					<linearGradient id="SVGID_00000182485955366654490910000005187547830813805717_" gradientUnits="userSpaceOnUse" x1="1652.6929" y1="703.4811" x2="1936.4688" y2="1838.5883">
					<stop  offset="0" style="stop-color:#AA80F9"/>
					<stop  offset="0.9964" style="stop-color:#6165D7"/>
				</linearGradient>
				<path style="fill:url(#SVGID_00000182485955366654490910000005187547830813805717_);" d="M2550.195,1188.931l-1493.738-51.744
					c-50.2-1.739-91.072,38.509-91.072,89.904v66.755l1662.73,44.994v-61.49C2628.115,1230.008,2593.307,1190.424,2550.195,1188.931
					z"/>
				<path style="fill:#FFFFFF;" d="M1127.296,1223.039c0,16.692-13.206,29.837-29.519,29.361
					c-16.339-0.477-29.603-14.434-29.603-31.173s13.264-29.883,29.603-29.358
					C1114.089,1192.392,1127.296,1206.347,1127.296,1223.039z"/>
				<path style="fill:#FFFFFF;" d="M1230.318,1226.197c0,16.609-13.076,29.692-29.229,29.22
					c-16.178-0.472-29.311-14.359-29.311-31.015s13.133-29.737,29.311-29.218
					C1217.241,1195.703,1230.318,1209.587,1230.318,1226.197z"/>
				<path style="fill:#FFFFFF;" d="M1332.33,1229.324c0,16.528-12.948,29.548-28.943,29.081
					c-16.02-0.468-29.024-14.284-29.024-30.858s13.005-29.593,29.024-29.079C1319.381,1198.981,1332.33,1212.796,1332.33,1229.324z"
					/>
				
					<linearGradient id="SVGID_00000078036228901256433470000003010809085516898995_" gradientUnits="userSpaceOnUse" x1="1071.5389" y1="1796.7255" x2="2537.165" y2="1796.7255">
					<stop  offset="0" style="stop-color:#AA80F9"/>
					<stop  offset="0.9964" style="stop-color:#6165D7"/>
				</linearGradient>
				<polygon style="fill:url(#SVGID_00000078036228901256433470000003010809085516898995_);" points="2537.165,2006.315 
					1071.539,2016.98 1071.539,1576.471 2537.165,1596.585 				"/>
				<polygon style="fill:#FFFFFF;" points="2537.165,2109.779 1071.539,2128.216 1071.539,2080.913 2537.165,2065.781 				"/>
				<polygon style="fill:#FFFFFF;" points="2537.165,2217.711 1071.539,2244.256 1071.539,2196.953 2537.165,2173.714 				"/>
				<g>
					<polygon style="fill:#FFFFFF;" points="1861.279,1480.261 1071.539,1465.235 1071.539,1512.538 1861.279,1525.783 					"/>
					<polygon style="fill:#FFFFFF;" points="2453.857,1491.536 2453.857,1535.722 2537.166,1537.119 2537.166,1493.121 					"/>
				</g>
				<g style="opacity:0.5;">
					<path style="fill:#FFFFFF;" d="M1970.324,1758.238c-174.427-258.652-476.544-176.548-667.798-462.578
						c-34.503-51.6-57.917-104.098-73.976-152.511l-172.092-5.961c-50.2-1.739-91.072,38.509-91.072,89.904v1114.385
						c0,51.395,40.873,91.953,91.072,90.595l1137.202-30.756c-33.927-49.669-65.253-105.206-91.765-167.287
						C2000.197,1995.893,2075.519,1914.228,1970.324,1758.238z"/>
				</g>
				<g>
					<polygon style="fill:#FFFFFF;" points="1276.884,1686.694 1097.737,1685.029 1097.737,1632.711 1276.884,1634.807 					"/>
					<polygon style="fill:#FFFFFF;" points="2230.891,1695.563 1391.159,1687.757 1391.159,1636.144 2230.891,1645.969 					"/>
					<polygon style="fill:#FFFFFF;" points="1565.528,1776.825 1391.159,1775.92 1391.159,1724.307 1565.528,1725.631 					"/>
					<polygon style="fill:#FFFFFF;" points="2494.743,1781.648 1676.775,1777.403 1676.775,1726.476 2494.743,1732.688 					"/>
					<polygon style="fill:#FFFFFF;" points="1565.528,1864.273 1391.159,1864.084 1391.159,1812.471 1565.528,1813.079 					"/>
					<polygon style="fill:#FFFFFF;" points="2494.743,1865.281 1676.775,1864.393 1676.775,1813.467 2494.743,1816.32 					"/>
					<polygon style="fill:#FFFFFF;" points="1276.884,1952.592 1097.737,1953.134 1097.737,1900.815 1276.884,1900.704 					"/>
					<polygon style="fill:#FFFFFF;" points="2230.891,1949.71 1391.159,1952.247 1391.159,1900.634 2230.891,1900.115 					"/>
				</g>
			</g>
		</g>
		<g>
			<g>
				
					<linearGradient id="SVGID_00000072280273816062746170000005529688481438455988_" gradientUnits="userSpaceOnUse" x1="1402.3823" y1="990.4331" x2="2306.6484" y2="990.4331">
					<stop  offset="0" style="stop-color:#311944"/>
					<stop  offset="1" style="stop-color:#893976"/>
				</linearGradient>
				<path style="fill:url(#SVGID_00000072280273816062746170000005529688481438455988_);" d="M2306.648,840.004l-0.374,317.981
					l-0.068,51.056c-0.035,29.941-20.399,22.648-48.071,22.112l-101.86,1.216l-13.287,0.169l-91.869,1.105l-15.117,0.194
					l-574.669,6.881l-3.763,0.049c-30.307-0.7-55.122-26.967-55.122-58.39l-0.066-387.447c0-30.846,23.897-55.471,53.425-54.816
					l1.728,0.038l21.902,1.207l776.998,41.863C2284.108,784.45,2306.683,810.029,2306.648,840.004z"/>
				
					<linearGradient id="SVGID_00000037660374422403817240000004154948427872978607_" gradientUnits="userSpaceOnUse" x1="2035.9355" y1="1283.6702" x2="2156.8528" y2="1283.6702">
					<stop  offset="0" style="stop-color:#311944"/>
					<stop  offset="1" style="stop-color:#893976"/>
				</linearGradient>
				<polygon style="fill:url(#SVGID_00000037660374422403817240000004154948427872978607_);" points="2156.853,1212.934 
					2142.988,1232.537 2123.994,1259.35 2051.018,1362.417 2036.309,1355.423 2036.072,1256.98 2036.002,1233.836 
					2035.936,1204.924 2051.152,1205.919 				"/>
				
					<linearGradient id="SVGID_00000022533770102515809880000014440124181484310965_" gradientUnits="userSpaceOnUse" x1="1796.6074" y1="537.515" x2="1985.2214" y2="1771.6543">
					<stop  offset="0" style="stop-color:#FF9085"/>
					<stop  offset="1" style="stop-color:#FB6FBB"/>
				</linearGradient>
				<path style="fill:url(#SVGID_00000022533770102515809880000014440124181484310965_);" d="M2322.935,838.909l-0.408,318.702
					l-0.068,52.211c-0.033,30.078-22.746,54.166-50.521,53.524l-137.717-3.725l-10.227-0.271l-72.875-1.955l-15.047-0.416
					l-565.787-15.277c-3.051-0.07-6.034-0.376-8.951-0.986c-26.171-5.011-46.342-29.273-46.342-57.645l-0.068-389.245
					c0-26.439,17.425-48.017,40.884-53.63c4.61-1.118,9.459-1.586,14.442-1.373l9.223,0.51l793.043,42.572
					C2300.292,783.135,2322.969,808.798,2322.935,838.909z"/>
				
					<linearGradient id="SVGID_00000162350368800829017830000006365690568258463419_" gradientUnits="userSpaceOnUse" x1="1995.198" y1="524.7087" x2="2178.4143" y2="1723.53">
					<stop  offset="0" style="stop-color:#FF9085"/>
					<stop  offset="1" style="stop-color:#FB6FBB"/>
				</linearGradient>
				<polygon style="fill:url(#SVGID_00000162350368800829017830000006365690568258463419_);" points="2172.516,1212.288 
					2156.257,1232.373 2134.212,1259.624 2050.992,1362.429 2051.077,1257.418 2051.077,1233.664 2051.077,1205.94 
					2051.077,1204.311 				"/>
			</g>
			<g>
				<path style="fill:#FFFFFF;" d="M1799.504,1083.8l-144.568-81.076v-24.608l144.568-75.22v40.313l-98.828,47.885l98.828,52.562
					V1083.8z"/>
				<path style="fill:#FFFFFF;" d="M1941.839,883.043l-74.711,237.132l-38.722-1.303l75.7-238.67L1941.839,883.043z"/>
				<path style="fill:#FFFFFF;" d="M1968.833,1051.487l90.253-40.949l-90.253-56.614v-39.155l130.1,88.206v22.8l-130.1,64.704
					V1051.487z"/>
			</g>
			
				<linearGradient id="SVGID_00000044862287034371698950000004209291225792484761_" gradientUnits="userSpaceOnUse" x1="1402.3823" y1="1050.5948" x2="2322.5261" y2="1050.5948">
				<stop  offset="0" style="stop-color:#FF9085"/>
				<stop  offset="1" style="stop-color:#FB6FBB"/>
			</linearGradient>
			<path style="opacity:0.2;fill:url(#SVGID_00000044862287034371698950000004209291225792484761_);" d="M2322.526,1157.611
				l-0.068,52.211c-0.033,30.078-22.746,54.166-50.521,53.524l-137.717-3.725l-83.203,102.795l-14.709-6.993l-0.237-98.444
				l-565.787-15.277c-3.051-0.07-6.034-0.376-8.951-0.986l-3.763,0.049c-30.307-0.7-55.122-26.967-55.122-58.39l-0.066-387.406
				c0-30.846,23.897-55.127,53.425-54.774c4.61-1.118,9.459-1.586,14.442-1.373l9.223,0.51c-0.035,0.678-0.035,1.356-0.035,2.068
				c-0.237,75.967,28.212,183.974,188.472,196.679c250.347,19.835,314.903,75.548,408.993,186.004
				c61.465,72.134,155.842,38.019,229.372,33.901C2311.816,1157.67,2317.257,1157.524,2322.526,1157.611z"/>
		</g>
		<g>
			
				<linearGradient id="SVGID_00000014620315669453443410000003150105182290706081_" gradientUnits="userSpaceOnUse" x1="2595.0342" y1="2194.0916" x2="2920.6523" y2="2271.0093">
				<stop  offset="0" style="stop-color:#311944"/>
				<stop  offset="1" style="stop-color:#893976"/>
			</linearGradient>
			<path style="fill:url(#SVGID_00000014620315669453443410000003150105182290706081_);" d="M2810.735,2073.514
				c107.237,3.291,197.302,68.765,214.852,151.645c0.023,0.108,0.045,0.217,0.067,0.326c0.95,4.536,1.681,9.124,2.188,13.758
				c0.033,0.305,0.07,0.611,0.102,0.917c0.222,2.165,0.395,4.34,0.517,6.524c0.022,0.396,0.038,0.793,0.057,1.19
				c0.106,2.232,0.177,4.47,0.177,6.72c0,96.313-98.299,169.302-217.961,163.108c-3.183-0.166-6.346-0.395-9.493-0.667
				c-0.308-0.027-0.618-0.049-0.926-0.076c-2.979-0.269-5.938-0.593-8.883-0.955c-0.458-0.057-0.917-0.11-1.374-0.169
				c-2.85-0.365-5.68-0.779-8.495-1.231c-0.531-0.084-1.06-0.171-1.59-0.259c-2.761-0.461-5.506-0.961-8.23-1.503
				c-0.552-0.11-1.102-0.225-1.654-0.338c-2.711-0.557-5.406-1.146-8.079-1.783c-0.518-0.124-1.031-0.255-1.547-0.382
				c-2.655-0.649-5.294-1.327-7.908-2.052c-0.469-0.131-0.933-0.27-1.401-0.402c-2.353-0.667-4.688-1.367-7.005-2.095
				c-0.588-0.185-1.18-0.361-1.765-0.549c-2.351-0.757-4.677-1.555-6.989-2.374c-0.499-0.176-1.011-0.333-1.509-0.512
				c0.006-0.006,0.012-0.011,0.019-0.017c-79.543-28.692-135.468-93.267-135.468-165.482
				C2598.439,2143.045,2692.801,2069.894,2810.735,2073.514z"/>
			
				<linearGradient id="SVGID_00000084522405006902300080000006935655141406956690_" gradientUnits="userSpaceOnUse" x1="-3124.7422" y1="2105.6838" x2="-2845.5872" y2="2623.4341" gradientTransform="matrix(-1 0 0 1 -258.321 0)">
				<stop  offset="0" style="stop-color:#FFC444"/>
				<stop  offset="0.9964" style="stop-color:#F36F56"/>
			</linearGradient>
			<path style="fill:url(#SVGID_00000084522405006902300080000006935655141406956690_);" d="M2575.735,2236.856
				c0,93.81,94.362,174.742,212.296,180.847c119.662,6.194,217.96-66.795,217.96-163.108s-98.299-177.407-217.96-181.081
				C2670.097,2069.894,2575.735,2143.045,2575.735,2236.856z"/>
			<g>
				<polygon style="fill:#FFFFFF;" points="2883.402,2185.451 2883.402,2322.887 2765.567,2376.187 2764.955,2375.238 
					2668.932,2306.099 2669.765,2192.795 2766.658,2128.592 2766.502,2127.719 				"/>
				<polygon style="fill:#F4F7FA;" points="2766.72,2128.541 2765.779,2375.346 2669.024,2306.099 2669.812,2192.795 				"/>
			</g>
			<g style="opacity:0.3;">
				
					<linearGradient id="SVGID_00000014614230043978432940000005520041136298548651_" gradientUnits="userSpaceOnUse" x1="-3206.5645" y1="2139.8921" x2="-2933.0063" y2="2688.8569" gradientTransform="matrix(-1 0 0 1 -258.321 0)">
					<stop  offset="0" style="stop-color:#FFC444"/>
					<stop  offset="0.9964" style="stop-color:#F36F56"/>
				</linearGradient>
				<path style="fill:url(#SVGID_00000014614230043978432940000005520041136298548651_);" d="M2735.975,2371.313
					c25.823-49.473-0.282-98.03,34.651-129.335c35.643-31.942,82.193,1.017,132.588-24.281c19.567-9.822,41.376-29.27,57.625-70.473
					c28.296,30.299,45.153,67.587,45.153,107.371c0,96.313-98.299,169.302-217.96,163.108c-27.168-1.406-53.073-6.78-76.848-15.348
					C2722.899,2392.177,2730.663,2381.488,2735.975,2371.313z"/>
			</g>
		</g>
		<g>
			
				<linearGradient id="SVGID_00000114786478557605023280000011274818299212012955_" gradientUnits="userSpaceOnUse" x1="2602.7722" y1="1232.0344" x2="2928.3904" y2="1308.9521">
				<stop  offset="0" style="stop-color:#311944"/>
				<stop  offset="1" style="stop-color:#893976"/>
			</linearGradient>
			<path style="fill:url(#SVGID_00000114786478557605023280000011274818299212012955_);" d="M2818.473,1111.457
				c107.237,3.291,197.302,68.765,214.853,151.645c0.023,0.108,0.045,0.217,0.067,0.326c0.95,4.536,1.682,9.124,2.188,13.758
				c0.033,0.306,0.07,0.611,0.102,0.918c0.222,2.165,0.394,4.34,0.517,6.524c0.022,0.396,0.038,0.793,0.057,1.19
				c0.107,2.232,0.177,4.47,0.177,6.72c0,96.313-98.299,169.302-217.961,163.108c-3.183-0.166-6.345-0.395-9.493-0.667
				c-0.308-0.027-0.618-0.048-0.926-0.076c-2.979-0.268-5.938-0.592-8.883-0.954c-0.458-0.057-0.917-0.11-1.374-0.169
				c-2.85-0.365-5.68-0.778-8.495-1.231c-0.531-0.084-1.061-0.171-1.59-0.259c-2.761-0.461-5.506-0.961-8.23-1.503
				c-0.552-0.11-1.102-0.225-1.653-0.338c-2.711-0.557-5.406-1.147-8.079-1.784c-0.518-0.123-1.031-0.255-1.547-0.381
				c-2.655-0.649-5.294-1.327-7.908-2.052c-0.469-0.13-0.933-0.27-1.401-0.402c-2.354-0.667-4.688-1.367-7.005-2.095
				c-0.588-0.185-1.18-0.361-1.765-0.549c-2.351-0.757-4.677-1.555-6.99-2.374c-0.499-0.176-1.011-0.333-1.509-0.512
				c0.007-0.006,0.012-0.011,0.019-0.017c-79.543-28.692-135.468-93.267-135.468-165.482
				C2606.177,1180.988,2700.539,1107.837,2818.473,1111.457z"/>
			
				<linearGradient id="SVGID_00000047023676277540553880000004642739216106657460_" gradientUnits="userSpaceOnUse" x1="-3132.4802" y1="1143.6267" x2="-2853.3252" y2="1661.3767" gradientTransform="matrix(-1 0 0 1 -258.321 0)">
				<stop  offset="0" style="stop-color:#FFC444"/>
				<stop  offset="0.9964" style="stop-color:#F36F56"/>
			</linearGradient>
			<path style="fill:url(#SVGID_00000047023676277540553880000004642739216106657460_);" d="M2583.473,1274.798
				c0,93.81,94.362,174.743,212.296,180.847c119.661,6.194,217.96-66.795,217.96-163.108s-98.299-177.407-217.96-181.08
				C2677.835,1107.837,2583.473,1180.988,2583.473,1274.798z"/>
			<g style="opacity:0.3;">
				
					<linearGradient id="SVGID_00000037680834939923969600000002995577018722700444_" gradientUnits="userSpaceOnUse" x1="-3214.3022" y1="1177.8347" x2="-2940.7444" y2="1726.7998" gradientTransform="matrix(-1 0 0 1 -258.321 0)">
					<stop  offset="0" style="stop-color:#FFC444"/>
					<stop  offset="0.9964" style="stop-color:#F36F56"/>
				</linearGradient>
				<path style="fill:url(#SVGID_00000037680834939923969600000002995577018722700444_);" d="M2743.713,1409.255
					c25.823-49.473-0.282-98.03,34.651-129.335c35.643-31.942,82.193,1.017,132.588-24.281c19.567-9.822,41.376-29.27,57.625-70.473
					c28.296,30.299,45.153,67.587,45.153,107.371c0,96.313-98.299,169.302-217.96,163.108c-27.168-1.406-53.073-6.78-76.848-15.347
					C2730.637,1430.12,2738.401,1419.431,2743.713,1409.255z"/>
			</g>
			<g>
				<g>
					<g>
						<path style="fill:#F4F7FA;" d="M2780.278,1399.845c-59.612-2.433-107.185-53.409-107.185-113.682
							s47.573-109.249,107.185-109.177c60.902,0.074,111.429,51.112,111.429,113.771
							C2891.708,1353.417,2841.18,1402.331,2780.278,1399.845z M2780.278,1186.64c-54.496-0.16-98.06,44.574-98.06,99.714
							c0,55.141,43.564,101.705,98.06,103.836c55.572,2.173,101.601-42.508,101.601-99.64S2835.85,1186.803,2780.278,1186.64z"/>
					</g>
					<g>
						<path style="fill:#F4F7FA;" d="M2835.648,1289.579c0,31.185-24.924,55.695-55.37,54.752
							c-30.12-0.932-54.301-26.474-54.301-57.057c0-30.583,24.181-55.109,54.301-54.775
							C2810.724,1232.837,2835.648,1258.394,2835.648,1289.579z"/>
					</g>
				</g>
				<path style="fill:#F4F7FA;" d="M2856.238,1194.201c0,13.285-10.683,23.964-23.806,23.854
					c-13.063-0.11-23.608-10.879-23.608-24.054c0-13.174,10.545-23.854,23.608-23.854
					C2845.555,1170.147,2856.238,1180.916,2856.238,1194.201z"/>
			</g>
		</g>
		<g>
			
				<linearGradient id="SVGID_00000014600381357504044780000006015044888272632233_" gradientUnits="userSpaceOnUse" x1="2733.1221" y1="1696.5084" x2="3096.0596" y2="1782.2417">
				<stop  offset="0" style="stop-color:#311944"/>
				<stop  offset="1" style="stop-color:#893976"/>
			</linearGradient>
			<path style="fill:url(#SVGID_00000014600381357504044780000006015044888272632233_);" d="M2973.544,1562.111
				c119.528,3.669,219.915,76.646,239.477,169.025c0.025,0.12,0.05,0.242,0.075,0.363c1.059,5.056,1.874,10.17,2.439,15.335
				c0.037,0.341,0.078,0.681,0.114,1.023c0.247,2.413,0.44,4.838,0.576,7.272c0.025,0.441,0.042,0.884,0.063,1.327
				c0.119,2.488,0.198,4.982,0.198,7.491c0,107.351-109.565,188.705-242.941,181.802c-3.548-0.185-7.073-0.44-10.581-0.744
				c-0.343-0.03-0.688-0.054-1.031-0.085c-3.321-0.299-6.619-0.66-9.901-1.064c-0.51-0.063-1.022-0.123-1.532-0.188
				c-3.176-0.407-6.331-0.868-9.468-1.372c-0.592-0.094-1.182-0.19-1.772-0.289c-3.078-0.514-6.137-1.071-9.174-1.675
				c-0.616-0.123-1.229-0.251-1.843-0.377c-3.022-0.621-6.026-1.278-9.005-1.988c-0.577-0.138-1.149-0.284-1.725-0.425
				c-2.959-0.723-5.901-1.479-8.814-2.287c-0.523-0.146-1.04-0.3-1.562-0.448c-2.623-0.744-5.225-1.523-7.808-2.335
				c-0.655-0.207-1.315-0.403-1.968-0.612c-2.621-0.844-5.213-1.733-7.791-2.646c-0.556-0.196-1.127-0.371-1.681-0.571
				c0.007-0.007,0.014-0.013,0.021-0.019c-88.66-31.981-150.994-103.957-150.994-184.448
				C2736.917,1639.612,2842.094,1558.076,2973.544,1562.111z"/>
			
				<linearGradient id="SVGID_00000031182430274759142200000003682438687846065808_" gradientUnits="userSpaceOnUse" x1="-3293.9341" y1="1597.9681" x2="-2982.7844" y2="2175.0581" gradientTransform="matrix(-1 0 0 1 -258.321 0)">
				<stop  offset="0" style="stop-color:#FFC444"/>
				<stop  offset="0.9964" style="stop-color:#F36F56"/>
			</linearGradient>
			<path style="fill:url(#SVGID_00000031182430274759142200000003682438687846065808_);" d="M2711.611,1744.173
				c0,104.562,105.177,194.77,236.628,201.574c133.376,6.904,242.941-74.451,242.941-181.802
				c0-107.351-109.565-197.74-242.941-201.834C2816.788,1558.076,2711.611,1639.612,2711.611,1744.173z"/>
			<g style="opacity:0.3;">
				
					<linearGradient id="SVGID_00000176019283552225459920000008320421423975625089_" gradientUnits="userSpaceOnUse" x1="-3385.1338" y1="1636.0968" x2="-3080.2229" y2="2247.9795" gradientTransform="matrix(-1 0 0 1 -258.321 0)">
					<stop  offset="0" style="stop-color:#FFC444"/>
					<stop  offset="0.9964" style="stop-color:#F36F56"/>
				</linearGradient>
				<path style="fill:url(#SVGID_00000176019283552225459920000008320421423975625089_);" d="M2890.216,1894.041
					c28.783-55.143-0.315-109.265,38.622-144.159c39.728-35.603,91.613,1.133,147.784-27.064
					c21.809-10.948,46.119-32.625,64.229-78.55c31.54,33.771,50.328,75.334,50.328,119.677
					c0,107.351-109.565,188.706-242.941,181.802c-30.282-1.568-59.155-7.557-85.655-17.106
					C2875.641,1917.297,2884.296,1905.383,2890.216,1894.041z"/>
			</g>
			<g>
				<path style="fill:#FFFFFF;" d="M2960.366,1755.561c0.023,10.841-8.604,19.455-19.24,19.238
					c-10.603-0.216-19.187-9.132-19.204-19.912c-0.017-10.777,8.535-19.385,19.132-19.229
					C2951.683,1735.814,2960.343,1744.723,2960.366,1755.561z"/>
				<g>
					<path style="fill:#FFFFFF;" d="M2892.779,1873.532c-10.716-0.376-20.097-3.585-27.899-9.53
						c-33.463-25.502-26.705-92.554,15.477-153.47c31.431-45.393,74.408-74.917,109.573-74.917c11.024,0,20.738,2.919,28.867,8.689
						c35.331,25.084,28.352,94.196-15.799,156.474C2970.719,1846.315,2927.424,1874.748,2892.779,1873.532z M2989.962,1647.944
						c-30.886-0.055-71.015,28.066-99.911,69.719c-37.227,53.658-45.582,115.931-18.356,136.615
						c5.772,4.385,12.861,6.749,21.07,7.023c30.38,1.012,70.662-26.172,100.193-67.908c38.696-54.687,47.343-118.641,18.767-138.995
						C3005.73,1650.129,2998.404,1647.959,2989.962,1647.944z"/>
				</g>
				<g>
					<path style="fill:#FFFFFF;" d="M2990.545,1876.964L2990.545,1876.964c-35.289-1.239-78.499-32.453-110.101-79.124
						c-42.283-62.441-49.079-129.535-15.734-153.729c7.768-5.635,17.112-8.495,27.792-8.495c34.527,0,77.808,29.778,110.256,76.272
						c44.517,63.786,51.979,133.359,16.706,157.346C3011.339,1874.756,3001.608,1877.353,2990.545,1876.964z M2892.515,1647.77
						c-8.184-0.015-15.247,2.088-20.995,6.247c-27.13,19.629-18.718,82.023,18.613,137.016
						c29.054,42.807,69.397,72.492,100.38,73.524c8.468,0.283,15.806-1.642,21.795-5.727
						c28.528-19.457,19.459-83.903-19.543-139.921C2963.083,1676.272,2922.802,1647.824,2892.515,1647.77z"/>
				</g>
				<g>
					<path style="fill:#FFFFFF;" d="M2943.739,1825.746c0,0-0.006,0-0.009,0l-3.597,1.708c-34.904-1.485-67.384-9.206-91.596-23.327
						c-25.225-14.709-38.872-33.403-38.58-53.54c0.575-39.63,56.423-70.056,128.492-69.576l3.591,0.164
						c49.599,1.042,95.384,16.922,119.033,41.483c10.858,11.278,16.53,22.199,16.386,35.026
						C3076.994,1798.945,3017.624,1832.278,2943.739,1825.746z M2938.473,1693.491c-64.482-0.547-116.427,25.434-116.894,57.929
						c-0.222,15.453,11.295,30.729,32.539,43.074c22.601,13.135,53.156,21.146,86.167,22.497l3.428,0.117
						c65.937,1.754,120.842-24.236,121.227-57.944c0.112-9.55-4.194-18.933-12.779-27.871
						c-21.381-22.264-63.785-36.686-110.269-37.747L2938.473,1693.491z"/>
				</g>
			</g>
		</g>
		<g>
			
				<linearGradient id="SVGID_00000157301701877852240410000017613269074834916263_" gradientUnits="userSpaceOnUse" x1="2053.5393" y1="3150.3062" x2="2136.0103" y2="3150.3062" gradientTransform="matrix(-1 0 0 1 3443.0605 0)">
				<stop  offset="0" style="stop-color:#AA80F9"/>
				<stop  offset="0.9964" style="stop-color:#6165D7"/>
			</linearGradient>
			<path style="fill:url(#SVGID_00000157301701877852240410000017613269074834916263_);" d="M1308.394,3132.903
				c0,0-2.397,19.068-0.788,25.456c1.609,6.389,57.05,11.005,75.869,8.784c18.818-2.222-11.209-21.444-23.2-25.051
				C1348.285,3138.485,1308.394,3132.903,1308.394,3132.903z"/>
			
				<linearGradient id="SVGID_00000155861005859395396530000016688074849168949404_" gradientUnits="userSpaceOnUse" x1="2106.759" y1="3120.8677" x2="2135.4548" y2="3120.8677" gradientTransform="matrix(-1 0 0 1 3443.0605 0)">
				<stop  offset="0.0036" style="stop-color:#F36F56"/>
				<stop  offset="1" style="stop-color:#FFC444"/>
			</linearGradient>
			<path style="fill:url(#SVGID_00000155861005859395396530000016688074849168949404_);" d="M1336.302,3101.094l-5.844,38.257
				c0,0-14.901,6.698-22.064,0.078l-0.788-40.044L1336.302,3101.094z"/>
			
				<linearGradient id="SVGID_00000128462602299135078050000005411084016550268084_" gradientUnits="userSpaceOnUse" x1="2410.1367" y1="3141.3901" x2="2474.1643" y2="3141.3901" gradientTransform="matrix(-1 0 0 1 3443.0605 0)">
				<stop  offset="0" style="stop-color:#AA80F9"/>
				<stop  offset="0.9964" style="stop-color:#6165D7"/>
			</linearGradient>
			<path style="fill:url(#SVGID_00000128462602299135078050000005411084016550268084_);" d="M1023.765,3099.385
				c0,0,11.763,8.729,8.627,19.183c-3.136,10.454-30.584,52.344-50.148,64.232c-19.562,11.89-13.43-12.88-7.736-28.308
				c5.693-15.427,20.238-49.411,25.917-55.108C1006.102,3093.689,1023.765,3099.385,1023.765,3099.385z"/>
			
				<linearGradient id="SVGID_00000099657607111907027380000005083835103436860554_" gradientUnits="userSpaceOnUse" x1="2398.1362" y1="3103.1731" x2="2455.2063" y2="3103.1731" gradientTransform="matrix(-1 0 0 1 3443.0605 0)">
				<stop  offset="0.0036" style="stop-color:#F36F56"/>
				<stop  offset="1" style="stop-color:#FFC444"/>
			</linearGradient>
			<path style="fill:url(#SVGID_00000099657607111907027380000005083835103436860554_);" d="M1044.924,3057.354
				c-5.686,15.851-11.155,28.883-15.434,38.495c-9.465,21.265-14.638,29.244-20.497,36.163
				c-5.109,6.025-17.204,18.882-20.456,16.742c-3.302-2.171,5.548-17.803,22.604-63.584c2.477-6.644,10.3-27.816,10.3-27.816l0,0
				H1044.924z"/>
			
				<linearGradient id="SVGID_00000127751979317635322290000011841381910854961546_" gradientUnits="userSpaceOnUse" x1="2618.6101" y1="2427.2751" x2="2306.2822" y2="2611.7295" gradientTransform="matrix(-1 0 0 1 3443.0605 0)">
				<stop  offset="0" style="stop-color:#311944"/>
				<stop  offset="1" style="stop-color:#893976"/>
			</linearGradient>
			<path style="fill:url(#SVGID_00000127751979317635322290000011841381910854961546_);" d="M1452.405,2395.032
				c4.058,39.841,7.951,101.678,2.13,176.728c-7.586,97.78-27.138,159.654-51.657,263.91
				c-14.986,63.715-35.176,157.49-53.449,274.77c-4.24,2.426-16.713,8.807-32.771,6.425c-8.992-1.335-15.716-4.91-19.687-7.479
				c-47.941-146.492-33.782-237.274-10.646-293.833c9.861-24.11,21.818-43.13,28.209-80.19c8.456-49.031-1.999-76.44-16.911-190.014
				c-10.629-80.95-8.789-93.464-1.717-105.603C1324.174,2391.207,1410.635,2392.156,1452.405,2395.032z"/>
			
				<linearGradient id="SVGID_00000096056368554514239500000003011065315174932136_" gradientUnits="userSpaceOnUse" x1="2674.5781" y1="2522.0391" x2="2362.2495" y2="2706.4939" gradientTransform="matrix(-1 0 0 1 3443.0605 0)">
				<stop  offset="0" style="stop-color:#311944"/>
				<stop  offset="1" style="stop-color:#893976"/>
			</linearGradient>
			<path style="fill:url(#SVGID_00000096056368554514239500000003011065315174932136_);" d="M1287.39,2412.068
				c-29.368,151.669-58.193,231.329-80.006,276.385c-5.379,11.11-23.327,46.959-40.294,98.354
				c-15.022,45.494-21.282,78.96-24.487,93.688c-10.125,46.491-35.15,114.373-102.484,203.407
				c-0.839,0.493-12.32,6.987-23.297,1.198c-5.555-2.931-8.325-7.604-9.425-9.781c8.802-85.123,18.908-156.654,27.679-211.86
				c1.841-11.578,9.945-62.236,22.656-129.164c4.975-26.194,12.263-64.57,20.994-103.986c10.87-49.087,27.54-115.865,53.231-195.885
				C1183.767,2426.97,1235.579,2419.523,1287.39,2412.068z"/>
			
				<linearGradient id="SVGID_00000033355316542614260010000013033856701938084237_" gradientUnits="userSpaceOnUse" x1="2435.1609" y1="2153.4058" x2="2301.0198" y2="1963.3726" gradientTransform="matrix(-1 0 0 1 3443.0605 0)">
				<stop  offset="0" style="stop-color:#444B8C"/>
				<stop  offset="0.9964" style="stop-color:#26264F"/>
			</linearGradient>
			<path style="fill:url(#SVGID_00000033355316542614260010000013033856701938084237_);" d="M1312.409,1812.156
				c16.655-15.396,48.52-33.143,64.501-74.401c4.811-12.419,21.855-56.422-3.287-90.082c-14.922-19.98-42.64-33.548-67.071-28.745
				c-20.877,4.105-24.142,18.645-59.617,47.908c-13.809,11.39-36.004,29.699-60.707,39.878
				c-42.322,17.442-67.749,1.03-110.239,2.901c-52.199,2.302-112.837,31.433-142.051,73.796
				c-51.854,75.186,23.261,151.457-33.535,239.539c-18.611,28.857-27.783,22.387-71.862,78.249
				c-44.138,55.936-66.207,83.9-62.28,118.172c5.45,47.563,56.682,93.001,104.926,96.088c47.127,3.021,77.085-34.059,101.077-17.839
				c17.077,11.54,7.313,33.99,25.45,60.969c23.379,34.783,69.332,41.714,76.753,42.83c68.885,10.392,161.765-70.383,201.212-166.079
				C1346.813,2062.773,1221.858,1895.856,1312.409,1812.156z"/>
			
				<linearGradient id="SVGID_00000052062912116284221870000017836942318345489325_" gradientUnits="userSpaceOnUse" x1="2176.3616" y1="1769.5116" x2="2287.0811" y2="2446.6062" gradientTransform="matrix(-1 0 0 1 3443.0605 0)">
				<stop  offset="0" style="stop-color:#FF9085"/>
				<stop  offset="1" style="stop-color:#FB6FBB"/>
			</linearGradient>
			<path style="fill:url(#SVGID_00000052062912116284221870000017836942318345489325_);" d="M1595.064,1860.063
				c0.468-48.169-108.953-86.664-159.02-99.065c-77.881-19.295-140.247-7.18-155.395-3.975
				c-97.128,20.58-157.619,78.861-180.386,103.358c18.643,12.139,70.091,49.18,95.57,119.451
				c7.928,21.864,31.348,96.608-2.146,166.617c-19.299,40.341-53.439,70.626-79.367,93.632
				c-38.891,34.501-59.032,39.804-72.069,70.713c-14.199,33.66,0.109,50.072-17.524,73.116
				c-18.937,24.746-41.124,13.243-73.222,38.27c-32.879,25.631-21.178,46.729-51.101,75.055
				c-43.478,41.157-101.116,27.79-103.8,46.311c-2.31,15.931,38.654,37.546,73.458,46.311
				c68.923,17.361,129.04-11.777,146.917-20.76c49.495-24.865,40.945-40.959,78.68-59.916c63.187-31.74,106.368,3.581,250.286,7.218
				c77.935,1.971,117.342,2.413,138.932-23.954c19.716-24.085,9.352-50.504-2.48-164.359
				c-5.631-54.189-7.662-108.697-11.813-163.016c-11.739-153.661-12.098-167.184-1.676-188.431
				C1506.242,1900.534,1594.644,1903.293,1595.064,1860.063z"/>
			<g style="opacity:0.3;">
				
					<linearGradient id="SVGID_00000036961866064367187300000011532060738524086974_" gradientUnits="userSpaceOnUse" x1="2290.3979" y1="1750.8633" x2="2401.1177" y2="2427.9592" gradientTransform="matrix(-1 0 0 1 3443.0605 0)">
					<stop  offset="0" style="stop-color:#FF9085"/>
					<stop  offset="1" style="stop-color:#FB6FBB"/>
				</linearGradient>
				<path style="fill:url(#SVGID_00000036961866064367187300000011532060738524086974_);" d="M900.403,2497.235
					c29.922-28.327,18.222-49.424,51.101-75.055c32.099-25.027,54.286-13.524,73.222-38.27
					c17.633-23.044,3.325-39.456,17.524-73.116c13.038-30.908,33.178-36.212,72.069-70.713
					c25.928-23.006,60.069-53.291,79.367-93.632c33.494-70.009,10.074-144.753,2.146-166.617
					c-25.479-70.271-76.927-107.312-95.57-119.451c1.794-1.934,3.912-4.137,6.176-6.457
					c122.832,16.88,194.45,87.855,203.307,108.872c20.474,48.581-11.938,66.428-12.776,206.54
					c-0.398,66.97,6.824,93.414-14.903,121.366c-24.852,31.969-53.491,22.076-89.427,63.877
					c-27.613,32.113-23.191,52.474-48.973,66.004c-27.724,14.546-45.382-2.408-76.652,4.26
					c-52.24,11.14-63.408,71.375-97.944,104.33c-26.116,24.919-74.401,42.343-169.628,23.643c-2.203-3.207-3.266-6.338-2.84-9.27
					C799.287,2525.025,856.925,2538.392,900.403,2497.235z"/>
			</g>
			
				<linearGradient id="SVGID_00000146499885515177507020000009397368121661300898_" gradientUnits="userSpaceOnUse" x1="2267.4949" y1="1754.6097" x2="2378.2141" y2="2431.7026" gradientTransform="matrix(-1 0 0 1 3443.0605 0)">
				<stop  offset="0" style="stop-color:#FF9085"/>
				<stop  offset="1" style="stop-color:#FB6FBB"/>
			</linearGradient>
			<path style="fill:url(#SVGID_00000146499885515177507020000009397368121661300898_);" d="M1272.486,2000.592
				c13.057,27.728-46.944,92.31-113.633,122.975c-13.586,6.251-111.162,51.114-154.651,7.972
				c-35.934-35.651-12.742-109.365-4.462-135.682c40.655-129.227,165.513-194.962,217.838-218.672
				c39.05,97.642,16.052,141.152,6.999,154.739c-9.457,14.191-35.847,44.003-63.877,70.265
				c-19.716,18.471-31.994,27.459-30.341,30.342c2.054,3.586,25.165-3.188,114.928-46.879
				C1255.694,1987.336,1268.025,1991.123,1272.486,2000.592z"/>
			
				<linearGradient id="SVGID_00000152251226814484877040000017932880325785469572_" gradientUnits="userSpaceOnUse" x1="2050.4739" y1="1872.4769" x2="1701.0975" y2="2618.0989" gradientTransform="matrix(-1 0 0 1 3443.0605 0)">
				<stop  offset="0" style="stop-color:#444B8C"/>
				<stop  offset="0.9964" style="stop-color:#26264F"/>
			</linearGradient>
			<path style="fill:url(#SVGID_00000152251226814484877040000017932880325785469572_);" d="M1648.077,1841.289l-44.043,219.341
				c-1.412,7.029-6.859,12.549-13.869,14.052l-328.406,70.479c-11.769,2.525-22.652-6.989-21.719-18.989l17.333-223.076
				c0.602-7.742,6.086-14.217,13.626-16.077c52.094-12.857,252.607-61.009,358.362-67.265
				C1641.172,1819.055,1650.406,1829.687,1648.077,1841.289z"/>
			
				<linearGradient id="SVGID_00000178172702151184858310000012231150701347439777_" gradientUnits="userSpaceOnUse" x1="1421.9666" y1="1452.6016" x2="1399.611" y2="1512.2166" gradientTransform="matrix(-0.8633 0.5047 0.5047 0.8633 1762.451 -259.5109)">
				<stop  offset="0.0036" style="stop-color:#F36F56"/>
				<stop  offset="1" style="stop-color:#FFC444"/>
			</linearGradient>
			<path style="fill:url(#SVGID_00000178172702151184858310000012231150701347439777_);" d="M1320.518,1681.095
				c0,0-6.195,49.522-24.473,60.87c-18.279,11.34-47.827,26.162-51.083,30.186c-3.255,4.017,113.23,16.542,170.958-12.588l0,0
				c-19.024-3.968-24.197-5.427-24.197-5.427c-5.162-1.46-14.794-4.174-24.449-9.676c-6.571-3.742-17.163-11.053-26.879-24.859
				l0.211-27.421L1320.518,1681.095z"/>
			
				<linearGradient id="SVGID_00000155859734139253205240000014725331177560016788_" gradientUnits="userSpaceOnUse" x1="1414.356" y1="1377.1396" x2="1338.7705" y2="1470.8232" gradientTransform="matrix(-0.8633 0.5047 0.5047 0.8633 1762.451 -259.5109)">
				<stop  offset="0.0036" style="stop-color:#F36F56"/>
				<stop  offset="1" style="stop-color:#FFC444"/>
			</linearGradient>
			<path style="fill:url(#SVGID_00000155859734139253205240000014725331177560016788_);" d="M1317.738,1698.634
				c0,0,11.917,16.358,30.607,9.541c16.734-6.103,6.747-49.325-6.527-54.255c-4.427-1.644-12.558-0.917-17.993,2.473
				c-3.823,2.385-14.03,15.065-8.179,29.275c-4.228-1.225-7.949-0.113-8.88,1.981c-1.183,2.655,2.396,6.272,3.208,7.091
				C1312.785,1697.581,1316.175,1698.376,1317.738,1698.634z"/>
			
				<linearGradient id="SVGID_00000021119099838812381460000017675678988044657823_" gradientUnits="userSpaceOnUse" x1="1794.6218" y1="1981.0658" x2="2168.5081" y2="1981.0658" gradientTransform="matrix(-1 0 0 1 3443.0605 0)">
				<stop  offset="0" style="stop-color:#444B8C"/>
				<stop  offset="0.9964" style="stop-color:#26264F"/>
			</linearGradient>
			<path style="opacity:0.3;fill:url(#SVGID_00000021119099838812381460000017675678988044657823_);" d="M1352.332,2030.934
				c35.27-9.945,64.52,14.752,92.621-4.791c28.785-20.017,9.998-54.208,39.923-87.83c31.996-35.95,72.587-18.341,102.203-51.102
				c10.993-12.165,20.884-31.984,21.036-65.774c7.42-0.717,14.526-1.285,21.244-1.684c11.811-0.698,21.047,9.937,18.718,21.533
				l-44.045,219.341c-1.411,7.03-6.858,12.55-13.868,14.054l-315.612,67.731C1296.838,2064.232,1326.574,2038.194,1352.332,2030.934
				z"/>
			
				<linearGradient id="SVGID_00000139987912522668535060000002399298290576611262_" gradientUnits="userSpaceOnUse" x1="1849.241" y1="2051.4224" x2="1831.6654" y2="1964.3439" gradientTransform="matrix(-1 0 0 1 3443.0605 0)">
				<stop  offset="0.0036" style="stop-color:#F36F56"/>
				<stop  offset="1" style="stop-color:#FFC444"/>
			</linearGradient>
			<path style="fill:url(#SVGID_00000139987912522668535060000002399298290576611262_);" d="M1624.99,1957.975
				c0,0,20.949-19.364,23.228-41.856c2.279-22.494-13.531-40.493-28.846-45.081c-15.315-4.588-23.489,2.178-13.208,24.327
				C1616.447,1917.514,1632.756,1931.89,1624.99,1957.975z"/>
		</g>
	</g>
</g>
</svg>
