<?xml version="1.0" encoding="utf-8"?>
<!-- Generator: Adobe Illustrator 27.5.0, SVG Export Plug-In . SVG Version: 6.00 Build 0)  -->
<svg version="1.1" id="Layer_1" xmlns="http://www.w3.org/2000/svg" xmlns:xlink="http://www.w3.org/1999/xlink" x="0px" y="0px"
	 viewBox="0 0 1159 771" style="enable-background:new 0 0 1159 771;" xml:space="preserve">
<g>
	<rect style="fill:#FFFFFF;" width="1159" height="771"/>
	<g>
		<g>
			<g>
				<g>
					<g>
						<g>
							<path style="fill:#FBE55F;" d="M717.743,379.97c-28.224-8.391-241.017-35.604-242.538,37.943
								c-1.194,57.657-42.667,272.8-9.561,284.724l297.101,0.015c26.669-14.211,24.475-188.665,23.636-259.281
								C785.967,408.772,745.65,388.264,717.743,379.97z"/>
						</g>
						<g>
							<path style="fill:#FBE55F;" d="M441.917,438.738c-24.374,41.655-78.382,130.199-65.745,170.218
								c13.224,41.907,82.743,33.516,99.111-2.508c7.64-16.825,25.475-56.814,31.257-67.93l-10.457-148.566
								C496.083,389.953,474.642,382.805,441.917,438.738z"/>
						</g>
						<g>
							<g>
								<g>
									<path style="fill:#FFFFFF;" d="M868.71,318.065c-4.043-9.927-12.796-10.921-12.796-10.921
										c-1.029-10.807-12.684-9.977-12.684-9.977c-14.309-17.925-26.685,1.232-26.685,1.232c0-9.105-4.597-58.049-6.841-62.897
										c-3.5-7.575-12.083-4.712-13.417-0.54c-2.18,6.846-0.51,75.549-0.51,75.549s-27.088,22.224,7.38,64.915
										c6.537,8.097-10.066,67.901-10.066,67.901l67.017,14.485c0,0-5.301-63.809,4.973-75.127
										c8.275-9.128-0.271-41.687-0.271-41.687S873.986,331.021,868.71,318.065z"/>
									<path d="M861.769,459.705l-70.547-15.246l0.422-1.529c6.34-22.84,14.754-61.102,10.348-66.562
										c-32.15-39.815-11.525-62.83-7.729-66.504c-0.229-9.645-1.541-68.654,0.598-75.358c0.891-2.801,4.072-4.986,7.559-5.203
										c3.732-0.229,6.902,1.794,8.643,5.572c2.15,4.635,6.053,44.631,6.844,59.455c2.514-2.665,6.697-6.046,11.924-6.305
										c4.998-0.299,9.674,2.309,14.092,7.612c0.047,0,0.1,0,0.152,0c4.512,0,11.813,2.109,13.19,10.242
										c2.707,0.657,9.363,3.1,12.838,11.619l0,0c4.857,11.942-1.646,21.381-3.645,23.877c1.271,5.133,7.822,33.393-0.264,42.317
										c-8.068,8.888-6.053,56.431-4.594,73.998L861.769,459.705z M794.961,442.197l63.492,13.724
										c-0.826-11.181-4.137-63.61,5.514-74.245c6.34-6.99,1.711-31.459-0.609-40.295l-0.205-0.791l0.551-0.604
										c0.352-0.381,8.455-9.469,3.621-21.351c-3.668-9.006-11.496-9.99-11.578-10.002l-1.207-0.135l-0.117-1.212
										c-0.873-9.206-10.717-8.619-11.086-8.625l-0.785,0.053l-0.492-0.61c-3.914-4.898-7.94-7.283-12.065-7.083
										c-7.008,0.34-12.135,8.115-12.188,8.191l-2.76,4.248v-5.063c0-9.363-4.67-57.873-6.703-62.261
										c-1.646-3.557-4.33-3.914-5.736-3.838c-2.227,0.135-4.371,1.512-4.887,3.123c-1.729,5.414-0.902,56.016-0.439,75.052
										l0.018,0.727l-0.563,0.469c-1.055,0.873-25.471,21.867,7.588,62.812C810.758,382.449,797.902,431.398,794.961,442.197z"/>
								</g>
							</g>
							<g>
								
									<rect x="826.59" y="391.802" transform="matrix(0.125 -0.9922 0.9922 0.125 347.6135 1180.0585)" style="fill:#000100;" width="32.467" height="2.305"/>
							</g>
							<g>
								<path style="fill:#000100;" d="M842.166,297.612c0.048,0.108,4.539,11.06,1.801,20.387
									c-2.687,9.142-11.559,13.975-18.602,13.361c-6.288-0.546-10.359-5.004-11.169-12.223c-0.592-5.305,0.284-8.824,2.604-10.458
									c4.174-2.943,11.925,0.787,12.002,0.826l1.016-2.067c-0.366-0.178-9.046-4.369-14.342-0.646
									c-3.061,2.155-4.26,6.393-3.571,12.602c0.934,8.287,5.887,13.619,13.258,14.261c0.452,0.04,0.915,0.061,1.377,0.061
									c7.707,0,16.791-5.377,19.636-15.068c2.971-10.122-1.685-21.446-1.887-21.923L842.166,297.612z"/>
							</g>
							<g>
								<path style="fill:#000100;" d="M854.808,307.465c0.028,0.08,2.263,8.016-0.486,17.394
									c-2.777,9.469-11.761,14.488-18.818,13.896c-2.021-0.175-6.797-1.146-7.398-6.386l-2.291,0.262
									c0.553,4.807,4.101,7.955,9.492,8.417c0.438,0.039,0.881,0.056,1.329,0.056c7.746,0,16.955-5.575,19.896-15.595
									c2.946-10.054,0.592-18.341,0.49-18.688L854.808,307.465z"/>
							</g>
							<g>
								<path style="fill:#000100;" d="M803.389,331.376l0.063,2.304c0.241-0.024,28.537-0.506,40.341,20.64l2.008-1.122
									C833.309,330.802,803.707,331.357,803.389,331.376z"/>
							</g>
							<g>
								<path style="fill:#FBE55F;" d="M793.977,395.259c-19.481,11.086-47.36,159.43-47.36,159.43l-24.31,79.772
									c26.298,77.886,78.848,55.023,112.936,23.137c53.893-50.407,42.59-190.798,36.76-238.485
									C869.533,398.86,811.352,385.361,793.977,395.259z"/>
							</g>
							<g>
								<g>
									<path style="fill:#FFFFFF;" d="M795.803,329.384c0,0,23.228,14.721,29.914,1.935c6.686-12.788-8.382-10.531-15.458-17.905
										c-7.077-7.373-20.112-9.915-26.274-4.834c-6.162,5.081-8.555,20.171-5.975,26.566
										c5.406,13.426,14.505,22.476,14.505,22.476L795.803,329.384z"/>
									<path d="M791.451,358.684c-0.375-0.375-9.375-9.422-14.83-22.975c-2.912-7.225-0.223-22.822,6.41-28.289
										c6.756-5.561,20.508-3.165,28.313,4.957c2.256,2.35,5.473,3.657,8.584,4.916c3.785,1.529,7.359,2.977,8.561,6.252
										c0.832,2.255,0.357,5.027-1.441,8.473c-1.488,2.848-3.809,4.71-6.896,5.537c-9.896,2.655-24.533-6.509-25.148-6.902
										l1.605-2.531c0.141,0.088,14.139,8.895,22.77,6.533c2.273-0.609,3.908-1.928,5.01-4.031
										c1.389-2.648,1.811-4.628,1.289-6.04c-0.75-2.028-3.586-3.182-6.873-4.512c-3.246-1.313-6.92-2.801-9.627-5.62
										c-6.557-6.826-18.791-9.216-24.234-4.716c-5.414,4.464-7.963,18.837-5.543,24.85c5.227,12.961,14.086,21.89,14.174,21.978
										L791.451,358.684z"/>
								</g>
							</g>
						</g>
						<g>
							<path style="fill:#000100;" d="M680.83,190.688c16.517-3.853,20.922-18.168,20.922-18.168s-7.154,3.155-46.797-6.056
								c-54.865-12.747-58.635,18.719-58.635,18.719c-34.136-24.501-66.891,67.991-30.275,122.221
								c37.78,55.967,94.966,21.747,120.562,2.753c25.605-18.993,1.107-33.584,1.377-47.07c0.279-13.489,18.173-17.62,19.824-46.797
								C709.458,187.109,680.83,190.688,680.83,190.688z"/>
							<path style="fill:#000100;" d="M687.517,189.598c11.746-5.505,15.174-16.213,15.332-16.738l0.67-2.246l-2.2,0.84
								c-0.015,0.004-1.189,0.436-4.819,0.436c-5.979,0-17.995-1.136-41.284-6.547c-8.767-2.039-16.797-3.071-23.863-3.071
								c-27.57,0-34.295,15.674-35.788,21.018c-3.494-2.195-7.081-3.308-10.686-3.308c-9.112,0-17.894,7.082-24.724,19.939
								c-14.741,27.729-16.921,75.756,4.939,108.127c13.941,20.657,31.879,31.132,53.31,31.132c20.589,0,43.769-9.454,68.893-28.099
								c18.337-13.602,11.761-25.666,6.484-35.358c-2.426-4.458-4.723-8.67-4.641-12.613c0.106-5.158,2.999-8.874,6.662-13.581
								c5.421-6.961,12.16-15.618,13.152-33.176c0.482-8.482-1.492-15.127-5.868-19.759
								C698.53,191.773,692.287,190.11,687.517,189.598z M706.657,216.224c-0.954,16.839-7.452,25.185-12.676,31.888
								c-3.77,4.845-7.028,9.029-7.148,14.95c-0.092,4.557,2.345,9.029,4.925,13.763c5.353,9.831,10.894,19.998-5.835,32.406
								c-24.378,18.086-47.721,27.647-67.521,27.647c-20.619,0-37.915-10.134-51.404-30.119
								c-21.374-31.652-19.231-78.629-4.814-105.759c6.412-12.066,14.471-18.714,22.693-18.714c3.605,0,7.23,1.29,10.769,3.834
								l1.584,1.136l0.23-1.935c0.029-0.207,2.846-20.746,33.891-20.746c6.893,0,14.74,1.014,23.338,3.012
								c29.067,6.749,40.813,6.912,45.194,6.455c-1.82,3.881-7.188,12.695-19.313,15.526l0.403,2.262
								c0.034-0.002,1.084-0.129,2.739-0.129c4.323,0,12.372,0.842,17.702,6.477C705.333,202.328,707.095,208.401,706.657,216.224z"
								/>
						</g>
						<g>
							<g>
								<path style="fill:#FFFFFF;" d="M556.576,265.57c-3.596,19.275,9.508,28.785,9.508,28.785l5.141-37.523
									C571.225,256.832,558.646,254.49,556.576,265.57z"/>
								<path d="M567.23,297.038l-2.027-1.471c-0.569-0.411-13.828-10.295-10.102-30.27l1.477,0.275l-1.477-0.275
									c1.852-9.925,11.507-10.846,16.4-9.943l1.406,0.264L567.23,297.038z M568.449,258.114c-3.393,0-9.141,1.02-10.394,7.734
									c-2.555,13.665,3.574,22.067,6.926,25.506l4.552-33.21C569.21,258.125,568.842,258.114,568.449,258.114z"/>
							</g>
						</g>
						<g>
							<g>
								<path style="fill:#FFFFFF;" d="M672.371,271.135l-3.239,37.734c0,0,14.876-6.393,15.607-25.989
									C685.157,271.616,672.371,271.135,672.371,271.135z"/>
								<path d="M667.42,311.235L671,269.58l1.43,0.053c4.939,0.188,14.18,3.205,13.81,13.301
									c-0.762,20.309-15.873,27.035-16.518,27.31L667.42,311.235z M673.736,272.786l-2.871,33.398
									c4.025-2.613,11.859-9.469,12.375-23.362C683.521,275.199,676.766,273.272,673.736,272.786z"/>
							</g>
						</g>
						<g>
							<g>
								<path style="fill:#FFFFFF;" d="M647.526,339.669l-65.88-3.847c0.949,9.949-2.363,31.072-2.363,31.072
									c1.656,10.658,6.095,23.377,27.107,23.377c25.745,0,42.32-21.008,42.32-21.008
									C644.927,352.848,647.526,339.669,647.526,339.669z"/>
								<path d="M606.389,391.772c-22.19,0-26.941-14.068-28.588-24.65l-0.035-0.229l0.035-0.234
									c0.035-0.206,3.27-21.047,2.35-30.697l-0.165-1.74l69.346,4.054l-0.334,1.682c-0.023,0.129-2.484,13.089,1.172,28.968
									l0.164,0.703l-0.445,0.568C649.191,371.076,632.563,391.772,606.389,391.772z M580.801,366.893
									c1.729,10.857,6.176,21.878,25.588,21.878c22.412,0,37.91-16.675,40.693-19.899c-2.865-12.99-1.863-23.765-1.301-27.802
									l-62.52-3.65C583.73,347.398,581.158,364.572,580.801,366.893z"/>
							</g>
						</g>
						<g>
							<g>
								<path style="fill:#FFFFFF;" d="M613.338,207.922c0,0-32.558-9.231-40.019,25.569c-3.221,15.008-7.756,45.182-8.868,60.746
									c-1.107,15.564-4.635,38.232,4.949,49.44c12.906,15.097,30.468,20.291,50.33,21.225
									c5.464-14.664,22.794-5.006,31.229-12.657c16.349-14.819,16.893-42.054,20.012-58.008
									c2.889-14.728,3.226-48.566,1.699-60.385C671.144,222.032,647.796,199.031,613.338,207.922z"/>
								<path d="M620.756,366.447l-1.096-0.047c-23.314-1.096-39.65-8.004-51.404-21.75c-8.743-10.23-7.12-29.045-5.819-44.167
									c0.194-2.21,0.375-4.342,0.521-6.352c1.148-16.184,5.807-46.576,8.895-60.955c2.355-10.986,7.4-18.873,14.988-23.437
									c11.18-6.727,24.029-3.985,26.502-3.364c22.084-5.578,37.916,2.051,45.392,7.114c8.402,5.689,14.602,13.792,15.422,20.167
									c1.529,11.818,1.266,45.68-1.717,60.867c-0.592,3.042-1.096,6.54-1.635,10.243c-2.338,16.16-5.244,36.263-18.838,48.592
									c-3.914,3.551-9.352,3.75-14.608,3.949c-7.178,0.264-13.383,0.492-16.225,8.115L620.756,366.447z M604.01,208.326
									c-4.629,0-10.406,0.838-15.639,3.996c-6.844,4.12-11.415,11.35-13.588,21.487c-3.064,14.279-7.693,44.466-8.835,60.533
									c-0.141,2.027-0.328,4.172-0.521,6.398c-1.254,14.56-2.819,32.683,5.115,41.964c10.998,12.862,26.332,19.436,48.199,20.643
									c3.738-8.49,11.572-8.783,18.51-9.041c4.94-0.182,9.598-0.357,12.703-3.176c12.797-11.595,15.615-31.113,17.883-46.792
									c0.545-3.744,1.055-7.277,1.664-10.389c2.877-14.66,3.152-48.551,1.682-59.906c-0.598-4.641-5.197-12.023-14.127-18.071
									c-7.096-4.81-22.184-12.058-43.342-6.598l-0.393,0.1l-0.393-0.111C612.857,209.346,609.131,208.326,604.01,208.326z"/>
							</g>
						</g>
						<g>
							<path style="fill:#000100;" d="M627.332,292.09c-5.873-4.222-14.62-6.554-23.671-5.137
								c-6.778,1.06-11.789,4.815-20.604,4.815c-7.13,0-13.07-1.844-17.87-4.881c-0.331,2.835-0.591,5.341-0.736,7.351
								c-1.107,15.564-4.635,38.232,4.949,49.44c12.906,15.097,30.468,20.291,50.33,21.225c5.464-14.664,22.794-5.006,31.229-12.651
								c14.942-13.549,16.681-37.441,19.261-53.633c-4.593,2.609-10.147,4.167-16.719,4.167
								C641.528,302.784,634.779,297.443,627.332,292.09z M622.368,318.199c-5.252,0.133-10.629-0.462-15.649-2.056
								c-5.06-1.61-9.817-4.073-14.303-6.889c-3.081-1.935-4.583-6.294-2.494-9.524c1.983-3.083,6.22-4.567,9.518-2.496
								c1.983,1.247,4.005,2.436,6.1,3.488c0.491,0.247,0.991,0.488,1.492,0.72c0.149,0.07,0.308,0.139,0.457,0.207
								c0.982,0.352,1.94,0.753,2.932,1.071c1.012,0.322,2.037,0.601,3.072,0.837c0.519,0.12,1.039,0.229,1.568,0.325
								c0.164,0.029,0.646,0.104,0.978,0.156c0.317,0.037,0.703,0.08,0.843,0.092c0.568,0.05,1.131,0.089,1.699,0.115
								c1.262,0.063,2.527,0.065,3.788,0.032c3.64-0.092,7.126,3.268,6.957,6.96C629.156,315.088,626.269,318.098,622.368,318.199z"
								/>
							<path style="fill:#000100;" d="M653.501,301.632c-10.985,0-17.479-4.689-24.354-9.653l-1.141-0.823
								c-6.451-4.636-15.828-6.706-24.522-5.341c-2.777,0.436-5.3,1.315-7.736,2.166c-3.711,1.295-7.548,2.636-12.69,2.636
								c-6.523,0-12.329-1.583-17.254-4.706l-1.544-0.978l-0.212,1.817c-0.337,2.855-0.597,5.38-0.741,7.405
								c-0.145,2.009-0.328,4.139-0.521,6.347c-1.299,15.061-2.912,33.802,5.739,43.921c11.688,13.672,27.94,20.541,51.148,21.624
								l0.843,0.039l0.293-0.785c2.922-7.842,9.542-8.088,16.541-8.348c5.199-0.193,10.567-0.39,14.385-3.856
								c13.498-12.234,16.396-32.251,18.727-48.332c0.303-2.075,0.591-4.075,0.895-5.968l0.376-2.368l-2.084,1.185
								C664.963,300.281,659.527,301.632,653.501,301.632z M668.184,304.435c-2.277,15.715-5.112,35.277-18,46.959
								c-3.196,2.898-7.913,3.071-12.916,3.258c-6.898,0.256-14.688,0.544-18.303,9.055c-22.096-1.175-37.583-7.789-48.688-20.777
								c-8.03-9.392-6.461-27.599-5.194-42.229c0.192-2.222,0.375-4.361,0.52-6.383c0.11-1.566,0.293-3.44,0.529-5.536
								c4.95,2.746,10.63,4.135,16.926,4.135c5.536,0,9.561-1.403,13.45-2.763c2.445-0.854,4.762-1.663,7.327-2.065
								c8.126-1.273,16.858,0.647,22.827,4.936l1.137,0.821c7.183,5.187,13.971,10.087,25.702,10.087
								c5.574,0,10.691-1.09,15.231-3.247C668.549,301.9,668.371,303.155,668.184,304.435z"/>
							<path style="fill:#000100;" d="M622.349,303.126h-0.009c-1.232,0.031-2.465,0.031-3.707-0.032
								c-0.549-0.026-1.103-0.063-1.655-0.111l-1.71-0.236c-0.51-0.091-1.015-0.197-1.516-0.313c-1.007-0.23-2.003-0.5-2.981-0.813
								c-0.592-0.188-1.17-0.409-1.747-0.63l-1.512-0.595c-0.486-0.226-0.973-0.461-1.454-0.706c-1.834-0.919-3.74-2.01-6.008-3.433
								c-3.563-2.244-8.723-0.83-11.101,2.848c-1.065,1.648-1.401,3.668-0.954,5.686c0.492,2.214,1.917,4.249,3.809,5.437
								c5.156,3.238,9.917,5.532,14.566,7.012c4.439,1.411,9.345,2.128,14.572,2.128c0.486,0,0.973-0.007,1.454-0.019
								c4.477-0.115,7.876-3.504,8.078-8.059c0.091-1.985-0.717-4.024-2.22-5.596C626.696,304.063,624.606,303.126,622.349,303.126z
								 M622.34,317.046c-5.406,0.142-10.663-0.534-15.271-2c-4.457-1.42-9.05-3.632-14.042-6.766
								c-1.382-0.87-2.421-2.359-2.782-3.989c-0.313-1.41-0.087-2.806,0.645-3.935c1.142-1.782,3.192-2.932,5.209-2.932
								c0.982,0,1.901,0.265,2.729,0.785c2.325,1.463,4.295,2.587,6.191,3.539c0.506,0.255,1.016,0.505,1.521,0.737l1.661,0.659
								c0.621,0.238,1.237,0.472,1.872,0.674c1.04,0.333,2.095,0.619,3.158,0.862c0.539,0.125,1.079,0.239,1.622,0.335l1.926,0.265
								c0.582,0.051,1.165,0.092,1.743,0.118c1.295,0.063,2.412,0.07,3.99,0.031c1.464,0,2.951,0.679,4.082,1.861
								c1.065,1.117,1.642,2.537,1.58,3.899C628.025,314.5,625.574,316.964,622.34,317.046z"/>
						</g>
						<g>
							<path style="fill:#000100;" d="M598.144,297.809l-1.737,1.509c9.85,11.359,23.353,12.011,23.925,12.033l0.092-2.301
								C620.293,309.045,607.32,308.393,598.144,297.809z"/>
						</g>
						<g>
							<path style="fill:#000100;" d="M588.988,234.898l0.722,2.185c13.383-4.46,21.076-1.731,21.158-1.699l0.804-2.159
								C611.335,233.099,603.224,230.155,588.988,234.898z"/>
						</g>
						<g>
							<path style="fill:#000100;" d="M637.292,230.047l0.298,2.284c0.082-0.014,8.214-0.928,20.229,6.432l1.203-1.964
								C646.236,228.969,637.663,230.002,637.292,230.047z"/>
						</g>
						<g>
							<path style="fill:#000100;" d="M646.251,260.606c-1.863,0-3.375,1.514-3.375,3.377c0,1.866,1.512,3.377,3.375,3.377
								c1.862,0,3.374-1.511,3.374-3.377C649.625,262.121,648.113,260.606,646.251,260.606z"/>
							<path style="fill:#000100;" d="M646.251,259.456c-2.499,0-4.53,2.031-4.53,4.527c0,2.499,2.031,4.528,4.53,4.528
								c2.493,0,4.524-2.029,4.524-4.528C650.775,261.487,648.744,259.456,646.251,259.456z M646.251,266.207
								c-1.228,0-2.224-0.997-2.224-2.224c0-1.225,0.996-2.224,2.224-2.224c1.227,0,2.219,0.999,2.219,2.224
								C648.47,265.211,647.478,266.207,646.251,266.207z"/>
						</g>
						<g>
							<path style="fill:#000100;" d="M596.286,254.775c-1.868,0-3.379,1.509-3.379,3.374c0,1.866,1.511,3.377,3.379,3.377
								c1.863,0,3.375-1.511,3.375-3.377C599.661,256.284,598.149,254.775,596.286,254.775z"/>
							<path style="fill:#000100;" d="M596.286,253.624c-2.498,0-4.529,2.029-4.529,4.525c0,2.499,2.031,4.528,4.529,4.528
								c2.494,0,4.525-2.029,4.525-4.528C600.811,255.653,598.78,253.624,596.286,253.624z M596.286,260.373
								c-1.227,0-2.224-0.996-2.224-2.224c0-1.225,0.996-2.222,2.224-2.222c1.229,0,2.225,0.997,2.225,2.222
								C598.511,259.376,597.515,260.373,596.286,260.373z"/>
						</g>
						<g>
							<path style="fill:#000100;" d="M623.64,278.05c0.279,0.649,0.9,2.744,0.125,3.817c-0.616,0.854-2.104,0.917-3.254,0.818
								l-0.192,2.294c0.337,0.029,0.654,0.045,0.962,0.045c2.022,0,3.486-0.609,4.353-1.81c1.661-2.306,0.284-5.695,0.125-6.073
								L623.64,278.05z"/>
						</g>
					</g>
					<g>
						<g>
							<g>
								<g>
									<path style="fill:#000100;" d="M676.271,397.579c-0.598-0.356-1.127-0.554-1.512-0.655c-0.414-0.134-0.66-0.153-0.66-0.153
										l-0.033,0.153L628.66,594.048c8.193,0,9.672-6.499,11.626-14.481c5.714-23.214,40.827-166.491,41.338-168.803
										c0.905-3.981,0.332-6.86-0.876-8.954C679.598,399.794,677.854,398.484,676.271,397.579z"/>
									<path style="fill:#000100;" d="M676.853,396.588c-0.751-0.443-1.392-0.665-1.753-0.766c-0.5-0.159-0.827-0.192-0.891-0.197
										l-1.039,0.053l-45.632,198.11l-0.328,1.41h1.449c8.988,0,10.778-7.303,12.67-15.039l0.078-0.317
										c5.681-23.079,40.837-166.56,41.338-168.821c0.871-3.828,0.534-7.116-0.997-9.783
										C680.69,399.385,679.087,397.858,676.853,396.588z M680.502,410.515c-0.5,2.258-35.651,145.7-41.332,168.778l-0.077,0.317
										c-1.921,7.842-3.352,12.536-8.964,13.205l44.822-194.61c0.218,0.087,0.468,0.207,0.747,0.37
										c1.877,1.073,3.201,2.315,4.049,3.808C680.984,404.53,681.239,407.266,680.502,410.515z"/>
								</g>
							</g>
						</g>
						<g>
							<g>
								<g>
									<path style="fill:#FFFFFF;" d="M672.473,396.529H404.237c-3.726,0-6.976,2.532-7.89,6.143l-46.066,181.416l281.903,0.327
										l45.867-180.722C678.972,400.063,676.223,396.529,672.473,396.529z"/>
									<path style="fill:#000100;" d="M672.473,395.379H404.237c-4.255,0-7.962,2.884-9.007,7.015l-46.065,181.41
										c-0.086,0.347-0.015,0.712,0.207,0.991c0.217,0.279,0.554,0.448,0.91,0.448l281.903,0.322c0.524,0,0.986-0.356,1.111-0.871
										l45.868-180.712c0.53-2.08,0.077-4.246-1.242-5.936C676.608,396.347,674.62,395.379,672.473,395.379z M676.935,403.413
										l-45.651,179.852l-279.525-0.322l45.7-179.986c0.789-3.104,3.576-5.271,6.778-5.271h268.236
										c1.43,0,2.754,0.645,3.635,1.772C676.988,400.588,677.287,402.027,676.935,403.413z"/>
								</g>
							</g>
						</g>
						<g>
							<g>
								<g>
									<g>
										<polygon points="366.577,564.336 406.09,408.747 665.487,408.747 625.965,564.336 										"/>
										<path d="M663.904,409.979l-38.898,153.124H368.161l38.888-153.124H663.904L663.904,409.979z M667.071,407.515H405.132
											l-40.139,158.054h261.93L667.071,407.515L667.071,407.515z"/>
									</g>
									<path style="fill:#000100;" d="M667.071,406.369H405.132c-0.525,0-0.982,0.356-1.112,0.867l-40.144,158.048
										c-0.086,0.347-0.009,0.713,0.207,0.992c0.217,0.278,0.554,0.442,0.91,0.442h261.93c0.524,0,0.982-0.357,1.112-0.866
										l40.148-158.049c0.086-0.347,0.015-0.713-0.207-0.991C667.76,406.532,667.428,406.369,667.071,406.369z M626.022,564.417
										H366.476l39.557-155.746h259.556L626.022,564.417z"/>
								</g>
							</g>
						</g>
						<g>
							<g>
								<g>
									<path style="fill:#000100;" d="M630.398,584.083l-279.404,4.063c-0.659,0-1.314,0.174-1.887,0.501l-73.737,56.088
										c-3.321,1.916-2.999,12.41,3.009,12.41h275.722c3.365,0,7.245-1.395,9.229-3.307l69.885-60.705
										C637.225,588.29,635.429,584.083,630.398,584.083z"/>
									<path style="fill:#000100;" d="M630.384,582.932l-279.409,4.064c-0.857,0-1.7,0.227-2.561,0.736l-73.62,56.007
										c-2.565,1.482-3.192,6.012-2.297,9.357c0.872,3.26,3.072,5.199,5.883,5.199h275.722c3.692,0,7.813-1.492,9.984-3.586
										l70.014-60.845c2.321-2.796,3.048-5.681,1.998-7.909C635.198,584.034,633.118,582.932,630.384,582.932z M632.458,592.262
										l-69.927,60.748c-1.762,1.699-5.387,2.984-8.429,2.984H278.38c-2.368,0-3.307-2.185-3.659-3.49
										c-0.78-2.912,0.033-6.085,1.348-6.851l73.615-56.006c0.39-0.232,0.838-0.347,1.329-0.347l279.385-4.067
										c1.791,0,3.11,0.621,3.615,1.699C634.654,588.305,634.028,590.346,632.458,592.262z"/>
								</g>
							</g>
						</g>
						<g>
							<g>
								<g>
									<g>
										<path style="fill:#FFFFFF;" d="M278.38,649.5c-1.42,0-2.186-0.963-2.426-1.862c-0.24-0.9-0.058-2.113,1.175-2.826
											l72.552-59.829c0.207-0.096,0.64-0.211,1.073-0.211l278.177,0.539l-73.294,64.488L278.38,649.5z"/>
										<path d="M350.758,583.539l0.019,2.465l274.894,0.529l-70.501,62.033l-276.79-0.299c-0.886,0-1.161-0.664-1.237-0.948
											c-0.077-0.284-0.168-0.996,0.602-1.439l0.179-0.105l0.159-0.13l72.176-59.54c0.159-0.067,0.327-0.101,0.501-0.101V583.539
											L350.758,583.539z M350.758,583.539c-0.654,0-1.3,0.173-1.863,0.495l-72.383,59.708c-3.322,1.916-1.964,6.99,1.868,6.99
											l277.72,0.299l76.09-66.948l-281.407-0.544c-0.009,0-0.014,0-0.014,0H350.758z"/>
									</g>
								</g>
							</g>
						</g>
						<g>
							<g>
								<g>
									<path style="fill:#FFFFFF;" d="M481.342,625.487h-81.919c-0.563,0-1.107,0.198-1.541,0.559l-19.545,16.122
										c-1.757,1.444-0.731,4.299,1.545,4.299h83.138c0.592,0,1.16-0.216,1.602-0.606l18.322-16.122
										C484.626,628.261,483.581,625.487,481.342,625.487z"/>
									<path style="fill:#000100;" d="M481.342,624.338h-81.919c-0.823,0-1.632,0.288-2.273,0.818l-19.544,16.122
										c-1.184,0.972-1.612,2.531-1.093,3.971c0.516,1.439,1.84,2.369,3.37,2.369h83.138c0.871,0,1.708-0.318,2.363-0.896
										l18.317-16.122c1.131-0.991,1.516-2.542,0.991-3.947C484.159,625.247,482.845,624.338,481.342,624.338z M482.181,628.877
										l-18.317,16.117c-0.236,0.207-0.534,0.323-0.842,0.323h-83.138c-0.832,0-1.131-0.65-1.204-0.848
										c-0.072-0.197-0.255-0.886,0.39-1.415l19.545-16.117c0.227-0.192,0.52-0.299,0.809-0.299h81.919
										c0.819,0,1.122,0.635,1.194,0.828C482.609,627.659,482.801,628.333,482.181,628.877z"/>
								</g>
							</g>
						</g>
						<g>
							<g>
								<g>
									<path style="fill:#000100;" d="M560.625,617.93c-0.13,0-0.27,0.049-0.38,0.131l-4.886,3.567
										c-0.453,0.332-0.308,0.982,0.221,0.982h13.749c0.183,0,0.395-0.087,0.592-0.23l5.378-3.909
										c0.216-0.159,0.26-0.468,0.072-0.468L560.625,617.93z"/>
								</g>
							</g>
							<g>
								<g>
									<path style="fill:#000100;" d="M551.309,612.106c-0.134,0-0.274,0.047-0.39,0.129l-4.881,3.582
										c-0.453,0.332-0.304,0.987,0.226,0.987h31.199c0.188,0,0.396-0.087,0.597-0.231l5.402-3.928
										c0.216-0.159,0.259-0.463,0.071-0.463L551.309,612.106z"/>
								</g>
							</g>
							<g>
								<g>
									<path style="fill:#000100;" d="M566.362,606.257c-0.134,0-0.27,0.047-0.385,0.129l-4.91,3.601
										c-0.462,0.333-0.318,0.987,0.212,0.987h23.79c0.184,0,0.396-0.086,0.598-0.231l5.42-3.947
										c0.223-0.158,0.261-0.467,0.073-0.467L566.362,606.257z"/>
								</g>
							</g>
							<g>
								<g>
									<path style="fill:#000100;" d="M543.005,617.93c-0.134,0-0.269,0.049-0.385,0.131l-4.857,3.567
										c-0.452,0.332-0.304,0.982,0.227,0.982h13.748c0.183,0,0.395-0.087,0.588-0.23l5.353-3.909
										c0.216-0.159,0.255-0.468,0.067-0.468L543.005,617.93z"/>
								</g>
							</g>
							<g>
								<g>
									<path style="fill:#000100;" d="M583.361,600.378c-0.136,0-0.269,0.048-0.386,0.13l-4.949,3.615
										c-0.457,0.338-0.323,0.997,0.212,0.997h13.84c0.183,0,0.399-0.087,0.597-0.236l5.449-3.962
										c0.217-0.158,0.266-0.472,0.077-0.472L583.361,600.378z"/>
								</g>
							</g>
							<g>
								<g>
									<path style="fill:#000100;" d="M565.622,600.378c-0.135,0-0.27,0.048-0.385,0.13l-4.925,3.615
										c-0.457,0.338-0.312,0.997,0.216,0.997h13.84c0.192,0,0.399-0.087,0.602-0.236l5.421-3.962
										c0.212-0.158,0.256-0.472,0.072-0.472L565.622,600.378z"/>
								</g>
							</g>
							<g>
								<g>
									<path style="fill:#000100;" d="M590.308,594.477c-0.135,0-0.274,0.048-0.391,0.13l-4.968,3.629
										c-0.462,0.338-0.322,1.002,0.207,1.002h13.869c0.188,0,0.404-0.087,0.602-0.236l5.473-3.976
										c0.222-0.164,0.265-0.477,0.077-0.477L590.308,594.477z"/>
								</g>
							</g>
							<g>
								<g>
									<path style="fill:#000100;" d="M588.921,590.813c-0.067,0-0.14,0.019-0.202,0.067l-2.623,1.921
										c-0.241,0.179-0.169,0.53,0.109,0.53h21.143c0.097,0,0.207-0.049,0.317-0.126l2.89-2.108
										c0.12-0.081,0.145-0.245,0.043-0.245L588.921,590.813z"/>
								</g>
							</g>
							<g>
								<g>
									<path style="fill:#000100;" d="M565.255,590.813c-0.072,0-0.14,0.019-0.202,0.067l-2.609,1.921
										c-0.24,0.179-0.163,0.53,0.121,0.53h21.138c0.097,0,0.213-0.049,0.318-0.126l2.874-2.108
										c0.11-0.081,0.14-0.245,0.038-0.245L565.255,590.813z"/>
								</g>
							</g>
							<g>
								<g>
									<path style="fill:#000100;" d="M541.59,590.813c-0.072,0-0.145,0.019-0.203,0.067l-2.589,1.921
										c-0.241,0.179-0.164,0.53,0.12,0.53h21.139c0.101,0,0.211-0.049,0.313-0.126l2.854-2.108
										c0.121-0.081,0.14-0.245,0.044-0.245L541.59,590.813z"/>
								</g>
							</g>
							<g>
								<g>
									<path style="fill:#000100;" d="M517.924,590.813c-0.072,0-0.144,0.019-0.206,0.067l-2.57,1.921
										c-0.241,0.179-0.16,0.53,0.125,0.53h21.138c0.102,0,0.212-0.049,0.318-0.126l2.836-2.108
										c0.11-0.081,0.13-0.245,0.033-0.245L517.924,590.813z"/>
								</g>
							</g>
							<g>
								<g>
									<path style="fill:#000100;" d="M494.254,590.813c-0.073,0-0.139,0.019-0.202,0.067l-2.556,1.921
										c-0.241,0.179-0.154,0.53,0.129,0.53h21.139c0.101,0,0.211-0.049,0.313-0.126l2.821-2.108
										c0.111-0.081,0.13-0.245,0.034-0.245L494.254,590.813z"/>
								</g>
							</g>
							<g>
								<g>
									<path style="fill:#000100;" d="M470.583,590.813c-0.067,0-0.139,0.019-0.197,0.067l-2.537,1.921
										c-0.241,0.179-0.154,0.53,0.13,0.53h21.138c0.102,0,0.212-0.049,0.318-0.126l2.797-2.108
										c0.111-0.081,0.13-0.245,0.029-0.245L470.583,590.813z"/>
								</g>
							</g>
							<g>
								<g>
									<path style="fill:#000100;" d="M446.918,590.813c-0.073,0-0.145,0.019-0.202,0.067l-2.518,1.921
										c-0.241,0.179-0.149,0.53,0.134,0.53h21.138c0.102,0,0.212-0.049,0.313-0.126l2.783-2.108
										c0.111-0.081,0.125-0.245,0.029-0.245L446.918,590.813z"/>
								</g>
							</g>
							<g>
								<g>
									<path style="fill:#000100;" d="M423.248,590.813c-0.067,0-0.139,0.019-0.197,0.067l-2.504,1.921
										c-0.236,0.179-0.145,0.53,0.14,0.53h21.143c0.096,0,0.207-0.049,0.308-0.126l2.764-2.108
										c0.11-0.081,0.126-0.245,0.024-0.245L423.248,590.813z"/>
								</g>
							</g>
							<g>
								<g>
									<path style="fill:#000100;" d="M399.581,590.813c-0.072,0-0.139,0.019-0.202,0.067l-2.484,1.921
										c-0.231,0.179-0.136,0.53,0.149,0.53h21.138c0.102,0,0.207-0.049,0.309-0.126l2.744-2.108
										c0.111-0.081,0.125-0.245,0.025-0.245L399.581,590.813z"/>
								</g>
							</g>
							<g>
								<g>
									<path style="fill:#000100;" d="M375.912,590.813c-0.067,0-0.14,0.019-0.192,0.067l-2.475,1.921
										c-0.231,0.179-0.13,0.53,0.154,0.53h21.138c0.102,0,0.212-0.049,0.309-0.126l2.729-2.108
										c0.105-0.081,0.115-0.245,0.019-0.245L375.912,590.813z"/>
								</g>
							</g>
							<g>
								<g>
									<path style="fill:#000100;" d="M357.296,590.813c-0.072,0-0.14,0.019-0.198,0.067l-2.459,1.921
										c-0.227,0.179-0.126,0.53,0.159,0.53h16.093c0.102,0,0.208-0.049,0.309-0.126l2.705-2.108
										c0.111-0.081,0.12-0.245,0.02-0.245L357.296,590.813z"/>
								</g>
							</g>
							<g>
								<g>
									<path style="fill:#000100;" d="M572.524,594.477c-0.134,0-0.27,0.048-0.39,0.13l-4.938,3.629
										c-0.458,0.338-0.318,1.002,0.216,1.002h13.87c0.188,0,0.399-0.087,0.602-0.236l5.44-3.976
										c0.221-0.164,0.265-0.477,0.076-0.477L572.524,594.477z"/>
								</g>
							</g>
							<g>
								<g>
									<path style="fill:#000100;" d="M525.386,617.93c-0.135,0-0.27,0.049-0.385,0.131l-4.834,3.567
										c-0.452,0.332-0.303,0.982,0.232,0.982h13.744c0.188,0,0.399-0.087,0.592-0.23l5.325-3.909
										c0.212-0.159,0.25-0.468,0.063-0.468L525.386,617.93z"/>
								</g>
							</g>
							<g>
								<g>
									<path style="fill:#000100;" d="M507.757,617.93c-0.13,0-0.265,0.049-0.375,0.131l-4.814,3.567
										c-0.448,0.332-0.293,0.982,0.241,0.982h13.744c0.188,0,0.39-0.087,0.587-0.23l5.3-3.909
										c0.211-0.159,0.25-0.468,0.063-0.468L507.757,617.93z"/>
								</g>
							</g>
							<g>
								<g>
									<path style="fill:#000100;" d="M533.454,612.106c-0.129,0-0.27,0.047-0.38,0.129l-4.857,3.582
										c-0.453,0.332-0.303,0.987,0.226,0.987h13.783c0.183,0,0.394-0.087,0.588-0.231l5.352-3.928
										c0.212-0.159,0.251-0.463,0.063-0.463L533.454,612.106z"/>
								</g>
							</g>
							<g>
								<g>
									<path style="fill:#000100;" d="M515.796,612.106c-0.135,0-0.269,0.047-0.385,0.129l-4.833,3.582
										c-0.448,0.332-0.294,0.987,0.236,0.987h13.777c0.188,0,0.394-0.087,0.592-0.231l5.325-3.928
										c0.211-0.159,0.25-0.463,0.062-0.463L515.796,612.106z"/>
								</g>
							</g>
							<g>
								<g>
									<path style="fill:#000100;" d="M498.134,612.106c-0.134,0-0.27,0.047-0.38,0.129l-4.814,3.582
										c-0.443,0.332-0.284,0.987,0.245,0.987h13.778c0.188,0,0.39-0.087,0.592-0.231l5.296-3.928
										c0.211-0.159,0.246-0.463,0.058-0.463L498.134,612.106z"/>
								</g>
							</g>
							<g>
								<g>
									<path style="fill:#000100;" d="M480.471,612.106c-0.135,0-0.27,0.047-0.385,0.129l-4.781,3.582
										c-0.447,0.332-0.284,0.987,0.25,0.987h13.773c0.188,0,0.399-0.087,0.587-0.231l5.276-3.928
										c0.208-0.159,0.24-0.463,0.053-0.463L480.471,612.106z"/>
								</g>
							</g>
							<g>
								<g>
									<path style="fill:#000100;" d="M462.395,612.106c-0.135,0-0.27,0.047-0.38,0.129l-4.761,3.582
										c-0.443,0.332-0.274,0.987,0.255,0.987h13.777c0.188,0,0.395-0.087,0.588-0.231l5.242-3.928
										c0.211-0.159,0.241-0.463,0.053-0.463L462.395,612.106z"/>
								</g>
							</g>
							<g>
								<g>
									<path style="fill:#000100;" d="M444.732,612.106c-0.135,0-0.27,0.047-0.376,0.129l-4.742,3.582
										c-0.438,0.332-0.265,0.987,0.265,0.987h13.777c0.183,0,0.395-0.087,0.582-0.231l5.219-3.928
										c0.207-0.159,0.235-0.463,0.052-0.463L444.732,612.106z"/>
								</g>
							</g>
							<g>
								<g>
									<path style="fill:#000100;" d="M427.075,612.106c-0.135,0-0.27,0.047-0.38,0.129l-4.713,3.582
										c-0.443,0.332-0.26,0.987,0.265,0.987h13.782c0.183,0,0.39-0.087,0.578-0.231l5.194-3.928
										c0.207-0.159,0.231-0.463,0.048-0.463L427.075,612.106z"/>
								</g>
							</g>
							<g>
								<g>
									<path style="fill:#000100;" d="M409.407,612.106c-0.13,0-0.265,0.047-0.376,0.129l-4.689,3.582
										c-0.438,0.332-0.255,0.987,0.279,0.987h13.772c0.188,0,0.39-0.087,0.583-0.231l5.165-3.928
										c0.207-0.159,0.231-0.463,0.043-0.463L409.407,612.106z"/>
								</g>
							</g>
							<g>
								<g>
									<path style="fill:#000100;" d="M391.336,612.106c-0.135,0-0.27,0.047-0.38,0.129l-4.665,3.582
										c-0.433,0.332-0.246,0.987,0.279,0.987h13.777c0.193,0,0.395-0.087,0.582-0.231l5.142-3.928
										c0.202-0.159,0.226-0.463,0.038-0.463L391.336,612.106z"/>
								</g>
							</g>
							<g>
								<g>
									<path style="fill:#000100;" d="M373.668,612.106c-0.13,0-0.264,0.047-0.371,0.129l-4.64,3.582
										c-0.434,0.332-0.246,0.987,0.289,0.987h13.778c0.183,0,0.39-0.087,0.578-0.231l5.107-3.928
										c0.207-0.159,0.227-0.463,0.039-0.463L373.668,612.106z"/>
								</g>
							</g>
							<g>
								<g>
									<path style="fill:#000100;" d="M530.045,606.257c-0.139,0-0.274,0.047-0.39,0.129l-4.857,3.601
										c-0.457,0.333-0.303,0.987,0.226,0.987h13.807c0.188,0,0.4-0.086,0.597-0.231l5.358-3.947
										c0.212-0.158,0.25-0.467,0.064-0.467L530.045,606.257z"/>
								</g>
							</g>
							<g>
								<g>
									<path style="fill:#000100;" d="M548.315,606.257c-0.135,0-0.275,0.047-0.385,0.129l-4.886,3.601
										c-0.458,0.333-0.308,0.987,0.222,0.987h13.811c0.188,0,0.395-0.086,0.592-0.231l5.382-3.947
										c0.217-0.158,0.26-0.467,0.073-0.467L548.315,606.257z"/>
								</g>
							</g>
							<g>
								<g>
									<path style="fill:#000100;" d="M512.34,606.257c-0.135,0-0.269,0.047-0.38,0.129l-4.843,3.601
										c-0.448,0.333-0.294,0.987,0.235,0.987h13.812c0.188,0,0.394-0.086,0.591-0.231l5.334-3.947
										c0.212-0.158,0.246-0.467,0.058-0.467L512.34,606.257z"/>
								</g>
							</g>
							<g>
								<g>
									<path style="fill:#000100;" d="M494.644,606.257c-0.135,0-0.269,0.047-0.385,0.129l-4.814,3.601
										c-0.448,0.333-0.289,0.987,0.241,0.987h13.811c0.188,0,0.39-0.086,0.592-0.231l5.3-3.947
										c0.212-0.158,0.246-0.467,0.059-0.467L494.644,606.257z"/>
								</g>
							</g>
							<g>
								<g>
									<path style="fill:#000100;" d="M476.938,606.257c-0.13,0-0.27,0.047-0.38,0.129l-4.79,3.601
										c-0.448,0.333-0.279,0.987,0.25,0.987h13.807c0.193,0,0.395-0.086,0.592-0.231l5.276-3.947
										c0.211-0.158,0.241-0.467,0.053-0.467L476.938,606.257z"/>
								</g>
							</g>
							<g>
								<g>
									<path style="fill:#000100;" d="M458.823,606.257c-0.136,0-0.27,0.047-0.381,0.129l-4.766,3.601
										c-0.443,0.333-0.274,0.987,0.256,0.987h13.807c0.188,0,0.399-0.086,0.586-0.231l5.252-3.947
										c0.212-0.158,0.241-0.467,0.053-0.467L458.823,606.257z"/>
								</g>
							</g>
							<g>
								<g>
									<path style="fill:#000100;" d="M441.122,606.257c-0.135,0-0.27,0.047-0.376,0.129L436,609.986
										c-0.443,0.333-0.27,0.987,0.264,0.987h13.807c0.188,0,0.395-0.086,0.587-0.231l5.223-3.947
										c0.212-0.158,0.236-0.467,0.049-0.467L441.122,606.257z"/>
								</g>
							</g>
							<g>
								<g>
									<path style="fill:#000100;" d="M423.421,606.257c-0.135,0-0.27,0.047-0.38,0.129l-4.718,3.601
										c-0.438,0.333-0.26,0.987,0.27,0.987h13.806c0.193,0,0.4-0.086,0.587-0.231l5.2-3.947c0.207-0.158,0.23-0.467,0.047-0.467
										L423.421,606.257z"/>
								</g>
							</g>
							<g>
								<g>
									<path style="fill:#000100;" d="M405.72,606.257c-0.135,0-0.27,0.047-0.375,0.129l-4.694,3.601
										c-0.438,0.333-0.255,0.987,0.274,0.987h13.807c0.188,0,0.395-0.086,0.587-0.231l5.171-3.947
										c0.202-0.158,0.231-0.467,0.043-0.467L405.72,606.257z"/>
								</g>
							</g>
							<g>
								<g>
									<path style="fill:#000100;" d="M387.604,606.257c-0.13,0-0.27,0.047-0.38,0.129l-4.67,3.601
										c-0.433,0.333-0.245,0.987,0.289,0.987h13.807c0.183,0,0.385-0.086,0.578-0.231l5.147-3.947
										c0.207-0.158,0.226-0.467,0.039-0.467L387.604,606.257z"/>
								</g>
							</g>
							<g>
								<g>
									<path style="fill:#000100;" d="M369.904,606.257c-0.135,0-0.27,0.047-0.375,0.129l-4.646,3.601
										c-0.438,0.333-0.245,0.987,0.289,0.987h13.807c0.188,0,0.39-0.086,0.583-0.231l5.117-3.947
										c0.202-0.158,0.227-0.467,0.033-0.467L369.904,606.257z"/>
								</g>
							</g>
							<g>
								<g>
									<path style="fill:#000100;" d="M547.068,600.378c-0.135,0-0.27,0.048-0.385,0.13l-4.901,3.615
										c-0.457,0.338-0.308,0.997,0.227,0.997h13.84c0.183,0,0.396-0.087,0.597-0.236l5.393-3.962
										c0.211-0.158,0.25-0.472,0.067-0.472L547.068,600.378z"/>
								</g>
							</g>
							<g>
								<g>
									<path style="fill:#000100;" d="M529.324,600.378c-0.129,0-0.269,0.048-0.385,0.13l-4.872,3.615
										c-0.452,0.338-0.303,0.997,0.232,0.997h13.839c0.188,0,0.396-0.087,0.593-0.236l5.373-3.962
										c0.212-0.158,0.25-0.472,0.058-0.472L529.324,600.378z"/>
								</g>
							</g>
							<g>
								<g>
									<path style="fill:#000100;" d="M511.589,600.378c-0.139,0-0.274,0.048-0.385,0.13l-4.852,3.615
										c-0.452,0.338-0.294,0.997,0.241,0.997h13.835c0.187,0,0.399-0.087,0.597-0.236l5.339-3.962
										c0.217-0.158,0.25-0.472,0.063-0.472L511.589,600.378z"/>
								</g>
							</g>
							<g>
								<g>
									<path style="fill:#000100;" d="M493.85,600.378c-0.14,0-0.274,0.048-0.385,0.13l-4.828,3.615
										c-0.448,0.338-0.285,0.997,0.245,0.997h13.84c0.183,0,0.395-0.087,0.592-0.236l5.309-3.962
										c0.217-0.158,0.251-0.472,0.063-0.472L493.85,600.378z"/>
								</g>
							</g>
							<g>
								<g>
									<path style="fill:#000100;" d="M475.686,600.378c-0.13,0-0.269,0.048-0.38,0.13l-4.799,3.615
										c-0.448,0.338-0.284,0.997,0.25,0.997h13.84c0.188,0,0.39-0.087,0.592-0.236l5.281-3.962
										c0.217-0.158,0.246-0.472,0.058-0.472L475.686,600.378z"/>
								</g>
							</g>
							<g>
								<g>
									<path style="fill:#000100;" d="M457.947,600.378c-0.136,0-0.27,0.048-0.381,0.13l-4.775,3.615
										c-0.443,0.338-0.275,0.997,0.26,0.997h13.835c0.188,0,0.395-0.087,0.588-0.236l5.261-3.962
										c0.212-0.158,0.241-0.472,0.053-0.472L457.947,600.378z"/>
								</g>
							</g>
							<g>
								<g>
									<path style="fill:#000100;" d="M440.207,600.378c-0.134,0-0.27,0.048-0.38,0.13l-4.752,3.615
										c-0.442,0.338-0.265,0.997,0.265,0.997h13.84c0.188,0,0.395-0.087,0.583-0.236l5.237-3.962
										c0.207-0.158,0.236-0.472,0.048-0.472L440.207,600.378z"/>
								</g>
							</g>
							<g>
								<g>
									<path style="fill:#000100;" d="M422.467,600.378c-0.135,0-0.269,0.048-0.38,0.13l-4.727,3.615
										c-0.438,0.338-0.261,0.997,0.269,0.997h13.84c0.188,0,0.395-0.087,0.587-0.236l5.208-3.962
										c0.207-0.158,0.236-0.472,0.043-0.472L422.467,600.378z"/>
								</g>
							</g>
							<g>
								<g>
									<path style="fill:#000100;" d="M404.309,600.378c-0.13,0-0.265,0.048-0.375,0.13l-4.703,3.615
										c-0.443,0.338-0.255,0.997,0.279,0.997h13.835c0.188,0,0.395-0.087,0.587-0.236l5.18-3.962
										c0.202-0.158,0.231-0.472,0.043-0.472L404.309,600.378z"/>
								</g>
							</g>
							<g>
								<g>
									<path style="fill:#000100;" d="M386.57,600.378c-0.135,0-0.27,0.048-0.375,0.13l-4.679,3.615
										c-0.438,0.338-0.25,0.997,0.284,0.997h13.84c0.188,0,0.39-0.087,0.578-0.236l5.161-3.962
										c0.202-0.158,0.227-0.472,0.039-0.472L386.57,600.378z"/>
								</g>
							</g>
							<g>
								<g>
									<path style="fill:#000100;" d="M554.092,594.477c-0.135,0-0.27,0.048-0.385,0.13l-4.92,3.629
										c-0.457,0.338-0.313,1.002,0.221,1.002h13.874c0.188,0,0.394-0.087,0.597-0.236l5.416-3.976
										c0.216-0.164,0.26-0.477,0.067-0.477L554.092,594.477z"/>
								</g>
							</g>
							<g>
								<g>
									<path style="fill:#000100;" d="M536.314,594.477c-0.135,0-0.27,0.048-0.385,0.13l-4.896,3.629
										c-0.458,0.338-0.303,1.002,0.226,1.002h13.875c0.188,0,0.394-0.087,0.597-0.236l5.391-3.976
										c0.212-0.164,0.251-0.477,0.068-0.477L536.314,594.477z"/>
								</g>
							</g>
							<g>
								<g>
									<path style="fill:#000100;" d="M518.536,594.477c-0.135,0-0.269,0.048-0.39,0.13l-4.867,3.629
										c-0.453,0.338-0.299,1.002,0.235,1.002h13.869c0.188,0,0.399-0.087,0.597-0.236l5.363-3.976
										c0.216-0.164,0.25-0.477,0.063-0.477L518.536,594.477z"/>
								</g>
							</g>
							<g>
								<g>
									<path style="fill:#000100;" d="M500.752,594.477c-0.134,0-0.269,0.048-0.38,0.13l-4.843,3.629
										c-0.457,0.338-0.298,1.002,0.236,1.002h13.87c0.192,0,0.399-0.087,0.597-0.236l5.334-3.976
										c0.217-0.164,0.25-0.477,0.062-0.477L500.752,594.477z"/>
								</g>
							</g>
							<g>
								<g>
									<path style="fill:#000100;" d="M482.556,594.477c-0.134,0-0.27,0.048-0.38,0.13l-4.824,3.629
										c-0.447,0.338-0.284,1.002,0.251,1.002h13.869c0.188,0,0.4-0.087,0.593-0.236l5.309-3.976
										c0.212-0.164,0.246-0.477,0.053-0.477L482.556,594.477z"/>
								</g>
							</g>
							<g>
								<g>
									<path style="fill:#000100;" d="M464.777,594.477c-0.134,0-0.269,0.048-0.384,0.13l-4.795,3.629
										c-0.447,0.338-0.274,1.002,0.261,1.002h13.868c0.183,0,0.396-0.087,0.588-0.236l5.281-3.976
										c0.212-0.164,0.246-0.477,0.058-0.477L464.777,594.477z"/>
								</g>
							</g>
							<g>
								<g>
									<path style="fill:#000100;" d="M446.995,594.477c-0.135,0-0.265,0.048-0.38,0.13l-4.77,3.629
										c-0.448,0.338-0.27,1.002,0.26,1.002h13.873c0.188,0,0.395-0.087,0.588-0.236l5.257-3.976
										c0.211-0.164,0.24-0.477,0.053-0.477L446.995,594.477z"/>
								</g>
							</g>
							<g>
								<g>
									<path style="fill:#000100;" d="M429.217,594.477c-0.129,0-0.265,0.048-0.38,0.13l-4.747,3.629
										c-0.443,0.338-0.26,1.002,0.27,1.002h13.869c0.187,0,0.394-0.087,0.587-0.236l5.227-3.976
										c0.208-0.164,0.236-0.477,0.048-0.477L429.217,594.477z"/>
								</g>
							</g>
							<g>
								<g>
									<path style="fill:#000100;" d="M411.02,594.477c-0.129,0-0.27,0.048-0.38,0.13l-4.723,3.629
										c-0.438,0.338-0.255,1.002,0.279,1.002h13.87c0.183,0,0.395-0.087,0.587-0.236l5.2-3.976
										c0.212-0.164,0.231-0.477,0.043-0.477L411.02,594.477z"/>
								</g>
							</g>
							<g>
								<g>
									<path style="fill:#000100;" d="M393.242,594.477c-0.135,0-0.27,0.048-0.38,0.13l-4.699,3.629
										c-0.438,0.338-0.25,1.002,0.284,1.002h13.87c0.188,0,0.39-0.087,0.583-0.236l5.175-3.976
										c0.211-0.164,0.23-0.477,0.043-0.477L393.242,594.477z"/>
								</g>
							</g>
							<g>
								<g>
									<path style="fill:#000100;" d="M331.402,612.106c-0.136,0-0.266,0.047-0.376,0.129l-4.582,3.582
										c-0.428,0.332-0.226,0.987,0.303,0.987h38.252c0.188,0,0.39-0.087,0.578-0.231l5.083-3.928
										c0.207-0.159,0.226-0.463,0.034-0.463L331.402,612.106z"/>
								</g>
							</g>
							<g>
								<g>
									<path style="fill:#000100;" d="M346.002,600.378c-0.13,0-0.264,0.048-0.371,0.13l-4.626,3.615
										c-0.428,0.338-0.232,0.997,0.298,0.997h37.183c0.188,0,0.395-0.087,0.583-0.236l5.127-3.962
										c0.207-0.158,0.226-0.472,0.034-0.472L346.002,600.378z"/>
								</g>
							</g>
							<g>
								<g>
									<path style="fill:#000100;" d="M353.002,594.477c-0.135,0-0.265,0.048-0.376,0.13l-4.646,3.629
										c-0.433,0.338-0.236,1.002,0.299,1.002h35.994c0.188,0,0.39-0.087,0.583-0.236l5.146-3.976
										c0.207-0.164,0.227-0.477,0.039-0.477L353.002,594.477z"/>
								</g>
							</g>
							<g>
								<g>
									<path style="fill:#000100;" d="M338.81,606.257c-0.135,0-0.27,0.047-0.375,0.129l-4.602,3.601
										c-0.429,0.333-0.232,0.987,0.303,0.987h27.122c0.188,0,0.385-0.086,0.578-0.231l5.093-3.947
										c0.202-0.158,0.217-0.467,0.029-0.467L338.81,606.257z"/>
								</g>
							</g>
							<g>
								<g>
									<path style="fill:#000100;" d="M378.598,617.93c-0.135,0-0.265,0.049-0.375,0.131l-4.64,3.567
										c-0.429,0.332-0.241,0.982,0.289,0.982h13.748c0.183,0,0.385-0.087,0.578-0.23l5.103-3.909
										c0.211-0.159,0.231-0.468,0.043-0.468L378.598,617.93z"/>
								</g>
							</g>
							<g>
								<g>
									<path style="fill:#000100;" d="M360.974,617.93c-0.13,0-0.265,0.049-0.375,0.131l-4.612,3.567
										c-0.429,0.332-0.236,0.982,0.293,0.982h13.749c0.183,0,0.385-0.087,0.573-0.23l5.084-3.909
										c0.206-0.159,0.221-0.468,0.034-0.468L360.974,617.93z"/>
								</g>
							</g>
							<g>
								<g>
									<path style="fill:#000100;" d="M343.35,617.93c-0.135,0-0.265,0.049-0.371,0.131l-4.588,3.567
										c-0.433,0.332-0.231,0.982,0.294,0.982h13.754c0.183,0,0.385-0.087,0.568-0.23l5.059-3.909
										c0.203-0.159,0.217-0.468,0.034-0.468L343.35,617.93z"/>
								</g>
							</g>
							<g>
								<g>
									<path style="fill:#000100;" d="M324.498,617.93c-0.135,0-0.269,0.049-0.375,0.131l-4.564,3.567
										c-0.429,0.332-0.222,0.982,0.303,0.982h14.982c0.188,0,0.39-0.087,0.573-0.23l5.03-3.909
										c0.202-0.159,0.217-0.468,0.029-0.468L324.498,617.93z"/>
								</g>
							</g>
							<g>
								<g>
									<path style="fill:#000100;" d="M396.843,617.93c-0.135,0-0.265,0.049-0.38,0.131l-4.66,3.567
										c-0.434,0.332-0.251,0.982,0.284,0.982h106.875c0.188,0,0.39-0.087,0.587-0.23l5.271-3.909
										c0.212-0.159,0.246-0.468,0.058-0.468L396.843,617.93z"/>
								</g>
							</g>
						</g>
					</g>
					<g>
						<g>
							<g>
								<path style="fill:#FFFFFF;" d="M330.053,650.42c0,0,5.7-0.02,7.703-3.38c0,0,14.534,4.448,14.163-3.673
									c-0.356-7.607-23.069-9.561-23.069-9.561s-4.795-2.272-5.955-2.527c-1.165-0.255-6.354-0.332-11.919,2.031
									c-5.561,2.364-14.774,7.265-14.774,7.265s4.867-5.787,4.376-9.089c-0.491-3.303-6.089-4.333-11.053,0.115
									c-4.958,4.448-9.874,4.294-12.849,11.938c-2.975,7.654-3.563,15.006-5.054,19.969c-1.492,4.963,4.549,7.26,18.221,23.998
									c13.667,16.743,33.129,4.361,61.875,1.632c31.107-2.951,52.867-31.811,52.867-31.811h-40.197
									C343.378,657.328,335.522,660.635,330.053,650.42z"/>
								<path d="M308.504,697.607c-7.594,0-14.174-2.227-19.823-9.152c-5.174-6.333-9.251-10.594-12.234-13.705
									c-5.11-5.332-7.436-7.764-6.264-11.672c0.534-1.775,0.944-3.861,1.424-6.275c0.821-4.16,1.752-8.871,3.668-13.805
									c2.162-5.543,5.408-7.441,8.543-9.275c1.54-0.901,3.14-1.834,4.705-3.24c3.217-2.883,7.248-4.049,10.295-2.947
									c1.805,0.65,2.982,2.011,3.24,3.727c0.241,1.611-0.416,3.527-1.324,5.273c3.029-1.54,6.797-3.387,9.657-4.606
									c5.736-2.438,11.22-2.46,12.826-2.115c1.165,0.258,4.828,1.957,6.029,2.519c4.564,0.416,23.783,2.654,24.176,10.963
									c0.117,2.619-1.055,4.096-2.063,4.875c-3.475,2.707-10.324,1.283-13.013,0.592c-1.565,1.764-3.961,2.543-5.772,2.889
									c3.68,5.121,8.766,4.922,19.564,4.483c3.51-0.14,7.553-0.305,12.246-0.305h43.213l-1.817,2.402
									c-0.902,1.201-22.518,29.42-53.924,32.402c-8.384,0.791-16.096,2.449-22.904,3.902
									C321.447,696.148,314.645,697.602,308.504,697.607z M296.375,630.131c-1.641,0-3.785,0.739-5.848,2.591
									c-1.793,1.604-3.598,2.659-5.197,3.591c-3.059,1.793-5.478,3.205-7.254,7.775c-1.822,4.683-2.73,9.259-3.527,13.295
									c-0.469,2.391-0.914,4.646-1.494,6.563c-0.639,2.132,0.726,3.685,5.561,8.729c3.012,3.147,7.142,7.453,12.387,13.881
									c9.07,11.104,20.912,8.561,37.318,5.051c6.89-1.477,14.695-3.147,23.256-3.961c24.826-2.355,43.828-21.908,49.822-28.816
									h-37.014c-4.646,0-8.648,0.165-12.123,0.305c-12.164,0.492-18.837,0.762-23.531-8.004l-1.172-2.191l2.485-0.018
									c1.353-0.012,5.15-0.51,6.422-2.648l0.604-1.008l1.125,0.34c3.216,0.984,9.129,1.887,11.332,0.199
									c0.416-0.328,0.96-0.926,0.897-2.367c-0.205-4.336-12.815-7.371-21.703-8.139l-0.51-0.141
									c-2.285-1.078-5.015-2.273-5.642-2.413c-0.914-0.229-5.848-0.247-11.004,1.951c-5.437,2.308-14.566,7.153-14.66,7.2
									l-6.826,3.627l4.975-5.918c1.84-2.191,4.312-6.088,4.043-7.899c-0.117-0.773-0.768-1.16-1.295-1.348
									C297.395,630.213,296.908,630.131,296.375,630.131z"/>
							</g>
						</g>
						<g>
							<path d="M296.124,639.136c-2.455,2.186-8.747,7.101-8.809,7.148l-0.477,0.371l0.034,0.602
								c0.505,9.113-1.729,14.346-1.748,14.394l-0.438,1.007l0.973,0.49c5.209,2.633,6.556,6.013,6.59,6.1
								c0.169,0.462,0.611,0.756,1.083,0.756c0.125,0,0.26-0.024,0.384-0.067c0.603-0.217,0.915-0.876,0.699-1.473
								c-0.058-0.164-1.43-3.861-6.812-6.89c0.66-1.964,1.917-6.725,1.599-13.84c1.53-1.198,6.311-4.973,8.453-6.874
								c0.472-0.425,0.515-1.151,0.096-1.628C297.328,638.755,296.596,638.717,296.124,639.136z"/>
						</g>
						<g>
							<path d="M328.475,632.719c-0.93,0.317-9.137,3.196-11.65,5.844c-2.907,3.072-3.066,11.693-2.484,16.406
								c0.742,5.988,3.293,12.801,3.399,13.085c0.173,0.462,0.611,0.746,1.078,0.746c0.135,0,0.27-0.024,0.405-0.077
								c0.597-0.222,0.896-0.887,0.668-1.478c-0.024-0.072-2.565-6.851-3.268-12.561c-0.664-5.367-0.067-12.487,1.878-14.538
								c1.795-1.892,8.352-4.434,10.726-5.252c0.601-0.207,0.919-0.867,0.712-1.464
								C329.731,632.829,329.071,632.512,328.475,632.719z"/>
						</g>
						<g>
							<path d="M294.049,643.55c0.135-0.621-0.255-1.237-0.876-1.377c-0.645-0.139-1.237,0.255-1.371,0.876
								c-2.971,13.321,2.064,31.248,2.281,32.004c0.144,0.506,0.606,0.837,1.107,0.837c0.106,0,0.212-0.018,0.317-0.047
								c0.607-0.174,0.963-0.81,0.79-1.42C296.245,674.244,291.209,656.303,294.049,643.55z"/>
						</g>
						<g>
							<path d="M326.125,632.352c-0.818,0.145-20.21,3.722-23.492,12.941c-3.153,8.877-0.606,25.244-0.491,25.933
								c0.087,0.568,0.578,0.973,1.136,0.973c0.058,0,0.115-0.005,0.178-0.015c0.63-0.097,1.059-0.688,0.958-1.315
								c-0.029-0.163-2.57-16.478,0.39-24.807c2.836-7.967,21.543-11.413,21.731-11.442c0.625-0.115,1.039-0.713,0.929-1.339
								C327.353,632.656,326.77,632.242,326.125,632.352z"/>
						</g>
					</g>
				</g>
				<g>
					<path style="fill:#000100;" d="M744.88,564.528l-2.455-0.222c7.727-86.911,36.009-143.553,36.298-144.116l2.195,1.116
						C780.639,421.865,752.558,478.117,744.88,564.528z"/>
				</g>
				<g>
					<g>
						<polygon style="fill:#006DBA;" points="568.614,450.501 567.977,452.938 645.482,452.83 646.114,450.39 						"/>
					</g>
					<g>
						<polygon style="fill:#006DBA;" points="497.104,473.526 496.459,475.972 553.171,475.909 553.811,473.465 						"/>
					</g>
					<g>
						<polygon style="fill:#006DBA;" points="536.288,525.133 535.644,527.586 593.381,527.525 594.019,525.071 						"/>
					</g>
					<g>
						<polygon style="fill:#FFFFFF;" points="589.894,486.518 589.259,488.96 636.081,488.902 636.714,486.456 						"/>
					</g>
					<g>
						<polygon style="fill:#FFFFFF;" points="585.376,499.505 584.737,501.954 611.853,501.924 612.487,499.478 						"/>
					</g>
					<g>
						<polygon style="fill:#FFFFFF;" points="417.123,509.331 416.474,511.782 526.131,511.663 526.774,509.213 						"/>
					</g>
					<g>
						<polygon style="fill:#006DBA;" points="602.477,509.128 601.841,511.579 630.181,511.54 630.815,509.09 						"/>
					</g>
					<g>
						<polygon style="fill:#FFFFFF;" points="593.313,461.899 592.68,464.342 642.499,464.277 643.131,461.834 						"/>
					</g>
					<g>
						<polygon style="fill:#FFFFFF;" points="563.911,473.473 563.268,475.914 639.49,475.825 640.121,473.381 						"/>
					</g>
					<g>
						<polygon style="fill:#FFFFFF;" points="424.402,486.697 423.749,489.145 508.357,489.048 509,486.605 						"/>
					</g>
					<g>
						<polygon style="fill:#FFFFFF;" points="527.839,486.582 527.197,489.029 568.58,488.987 569.219,486.54 						"/>
					</g>
					<g>
						<polygon style="fill:#FFFFFF;" points="430.915,461.777 430.265,464.216 519.901,464.12 520.543,461.678 						"/>
					</g>
					<g>
						<polygon style="fill:#FFFFFF;" points="552.748,499.175 552.107,501.624 571.921,501.601 572.56,499.151 						"/>
					</g>
					<g>
						<polygon style="fill:#FFFFFF;" points="610.771,524.706 610.141,527.16 626.116,527.137 626.75,524.687 						"/>
					</g>
					<g>
						<polygon style="fill:#FFFFFF;" points="538.14,461.961 537.503,464.403 584.245,464.35 584.882,461.907 						"/>
					</g>
					<g>
						<polygon style="fill:#006DBA;" points="416.883,525.352 416.228,527.806 522.394,527.69 523.037,525.24 						"/>
					</g>
					<g>
						<polygon style="fill:#006DBA;" points="588.053,554.929 587.414,557.389 618.249,557.323 618.885,554.863 						"/>
					</g>
					<g>
						<polygon style="fill:#FFFFFF;" points="442.267,554.412 441.615,556.872 501.166,556.806 501.813,554.347 						"/>
					</g>
					<g>
						<polygon style="fill:#FFFFFF;" points="593.431,533.815 592.793,536.271 623.744,536.236 624.379,533.781 						"/>
					</g>
					<g>
						<polygon style="fill:#FFFFFF;" points="514.111,544.206 513.465,546.664 596.647,546.575 597.285,544.118 						"/>
					</g>
					<g>
						<polygon style="fill:#FFFFFF;" points="444.336,534.551 443.685,537.003 507.851,536.934 508.496,534.481 						"/>
					</g>
					<g>
						<polygon style="fill:#FFFFFF;" points="377.976,543.937 377.323,546.394 503.11,546.255 503.752,543.798 						"/>
					</g>
					<g>
						<polygon style="fill:#FFFFFF;" points="375.208,554.485 374.555,556.945 419.272,556.898 419.926,554.44 						"/>
					</g>
					<g>
						<polygon style="fill:#FFFFFF;" points="558.191,533.559 557.55,536.014 578.937,535.99 579.577,533.535 						"/>
					</g>
					<g>
						<polygon style="fill:#FFFFFF;" points="380.42,534.62 379.769,537.071 430.287,537.018 430.94,534.562 						"/>
					</g>
					<g>
						<polygon style="fill:#FBE55F;" points="434.1,450.871 433.455,453.309 487.689,453.251 488.328,450.814 						"/>
					</g>
					<g>
						<polygon style="fill:#FBE55F;" points="428.165,473.584 427.514,476.029 481.789,475.968 482.44,473.522 						"/>
					</g>
					<g>
						<polygon style="fill:#FBE55F;" points="422.22,496.335 421.569,498.779 475.893,498.722 476.54,496.272 						"/>
					</g>
					<g>
						<polygon style="fill:#FBE55F;" points="421.032,500.887 420.374,503.336 439.319,503.316 439.971,500.867 						"/>
					</g>
					<g>
						<polygon style="fill:#FFFFFF;" points="608.513,415.552 607.879,417.986 654.58,417.926 655.21,415.491 						"/>
					</g>
					<g>
						<polygon style="fill:#FFFFFF;" points="604.014,428.473 603.379,430.908 630.423,430.882 631.056,428.445 						"/>
					</g>
					<g>
						<polygon style="fill:#FFFFFF;" points="436.207,438.247 435.562,440.685 544.933,440.567 545.573,438.129 						"/>
					</g>
					<g>
						<polygon style="fill:#006DBA;" points="621.077,438.045 620.444,440.483 648.711,440.444 649.341,438.007 						"/>
					</g>
					<g>
						<polygon style="fill:#FFFFFF;" points="443.453,415.728 442.804,418.162 527.188,418.074 527.83,415.64 						"/>
					</g>
					<g>
						<polygon style="fill:#FFFFFF;" points="546.619,415.617 545.98,418.051 587.256,418.005 587.892,415.571 						"/>
					</g>
					<g>
						<polygon style="fill:#FFFFFF;" points="571.472,428.144 570.834,430.58 590.597,430.558 591.23,428.125 						"/>
					</g>
					<g>
						<polygon style="fill:#FBE55F;" points="441.283,425.318 440.634,427.754 494.817,427.693 495.461,425.257 						"/>
					</g>
					<g>
						<polygon style="fill:#FBE55F;" points="440.101,429.847 439.446,432.283 458.343,432.265 458.99,429.828 						"/>
					</g>
				</g>
			</g>
		</g>
		<rect x="233.398" y="699.727" width="692.203" height="6.902"/>
		<g>
			<g>
				<path style="fill:#FF8200;" d="M871.414,64.37h-93.639c-13.629,0-24.686,11.057-24.686,24.685v65.942
					c0,13.632,11.057,24.688,24.686,24.688h93.639c13.635,0,24.685-11.057,24.685-24.688V89.055
					C896.1,75.427,885.049,64.37,871.414,64.37z"/>
			</g>
			<g>
				<g>
					<path d="M796.607,98.372v13.508c0,4.524-2.063,6.783-6.188,6.783h-0.598v6.727h0.598c4.125,0,6.188,2.262,6.188,6.782v13.511
						c0,8.01,4.5,12.531,13.512,13.573v-6.782c-4.535-0.343-6.785-2.604-6.785-6.791v-13.511c0-3.908-1.512-7.29-4.547-10.149
						c3.035-2.854,4.547-6.234,4.547-10.143V98.372c0-4.146,2.25-6.407,6.785-6.792v-6.782
						C801.107,85.854,796.607,90.382,796.607,98.372z"/>
				</g>
			</g>
			<g>
				<g>
					<path d="M852.588,111.88V98.372c0-8.019-4.506-12.54-13.506-13.573v6.782c4.523,0.343,6.785,2.604,6.785,6.792v13.508
						c0,3.909,1.512,7.289,4.535,10.143c-3.023,2.859-4.535,6.24-4.535,10.149v13.511c0,4.143-2.262,6.398-6.785,6.791v6.782
						c9-1.054,13.506-5.583,13.506-13.573v-13.511c0-4.521,2.057-6.782,6.182-6.782h0.598v-6.727h-0.598
						C854.644,118.663,852.588,116.404,852.588,111.88z"/>
				</g>
			</g>
		</g>
		<g>
			<g>
				<path style="fill:#00ABA0;" d="M409.39,217.833h-93.638c-13.635,0-24.691,11.057-24.691,24.688v65.942
					c0,13.632,11.056,24.685,24.691,24.685h93.638c13.629,0,24.686-11.053,24.686-24.685v-65.942
					C434.076,228.89,423.019,217.833,409.39,217.833z"/>
			</g>
			<g>
				<g>
					<polygon points="318.277,280.168 347.966,294.3 347.966,286.092 325.748,275.908 347.966,265.724 347.966,257.516 
						318.277,271.646 					"/>
				</g>
				<g>
					<polygon points="350.152,311.427 357.371,311.427 378.616,237.072 371.404,237.072 					"/>
				</g>
				<g>
					<polygon points="380.164,265.724 402.376,275.908 380.164,286.092 380.164,294.3 409.847,280.168 409.847,271.646 
						380.164,257.516 					"/>
				</g>
			</g>
		</g>
	</g>
</g>
</svg>
